<svg xmlns="http://www.w3.org/2000/svg" xmlns:xlink="http://www.w3.org/1999/xlink" width="500" zoomAndPan="magnify" viewBox="0 0 375 374.999991" height="500" preserveAspectRatio="xMidYMid meet" version="1.0"><defs><g/><clipPath id="1ca534c727"><path d="M 99 74.523438 L 276 74.523438 L 276 300.273438 L 99 300.273438 Z M 99 74.523438 " clip-rule="nonzero"/></clipPath><clipPath id="d970611e57"><path d="M 95.886719 175.910156 L 279.113281 175.910156 L 279.113281 227.679688 L 95.886719 227.679688 Z M 95.886719 175.910156 " clip-rule="nonzero"/></clipPath></defs><rect x="-37.5" width="450" fill="#ffffff" y="-37.499999" height="449.999989" fill-opacity="1"/><rect x="-37.5" width="450" fill="#ffffff" y="-37.499999" height="449.999989" fill-opacity="1"/><g clip-path="url(#1ca534c727)"><path fill="#d41a1a" d="M 252.570312 101.484375 C 252.261719 99.828125 252.113281 98.148438 252.21875 96.699219 L 252.359375 94.820312 L 250.480469 94.804688 C 242.617188 94.746094 234.75 93.96875 227.039062 92.445312 C 219.515625 90.960938 212.132812 88.765625 205.042969 85.832031 C 202.890625 84.941406 200.753906 83.980469 198.664062 82.949219 C 196.671875 81.964844 194.71875 80.914062 192.820312 79.792969 C 192.109375 79.375 191.378906 78.9375 190.671875 78.488281 C 189.960938 78.035156 189.246094 77.554688 188.570312 77.046875 L 187.511719 76.25 L 186.453125 77.046875 C 185.773438 77.554688 185.0625 78.035156 184.351562 78.488281 C 183.648438 78.9375 182.910156 79.375 182.203125 79.792969 C 180.308594 80.914062 178.351562 81.964844 176.359375 82.949219 C 174.269531 83.980469 172.132812 84.941406 169.980469 85.832031 C 162.890625 88.765625 155.507812 90.960938 147.984375 92.445312 C 140.273438 93.96875 132.40625 94.746094 124.542969 94.804688 L 122.664062 94.820312 L 122.804688 96.699219 C 122.910156 98.171875 122.757812 99.875 122.441406 101.546875 C 122.09375 103.371094 121.554688 105.167969 120.933594 106.605469 C 119.445312 110.066406 117.242188 112.71875 114.515625 114.699219 C 111.554688 116.847656 107.980469 118.191406 104.054688 118.886719 L 101.585938 119.328125 L 102.839844 121.5 C 105.308594 125.773438 106.738281 130.808594 107.558594 135.976562 C 108.371094 141.109375 108.578125 146.375 108.597656 151.140625 C 108.613281 154.253906 108.542969 157.359375 108.429688 160.460938 C 108.3125 163.59375 108.148438 166.683594 107.976562 169.757812 C 107.886719 171.394531 107.789062 173.035156 107.695312 174.671875 C 107.40625 179.640625 107.117188 184.605469 106.929688 189.523438 C 106.566406 199.1875 106.523438 209.464844 107.902344 219.429688 C 109.273438 229.355469 112.050781 238.96875 117.3125 247.347656 C 121.199219 253.53125 125.964844 258.238281 131.394531 262.082031 C 136.84375 265.9375 142.980469 268.933594 149.582031 271.691406 C 151.722656 272.585938 153.753906 273.394531 155.785156 274.203125 C 159.476562 275.671875 163.164062 277.140625 166.734375 278.785156 C 169.199219 279.921875 171.664062 281.175781 174.015625 282.621094 C 176.371094 284.074219 178.609375 285.722656 180.597656 287.636719 C 181.671875 288.671875 182.660156 289.773438 183.554688 290.941406 C 184.449219 292.113281 185.253906 293.355469 185.960938 294.671875 L 187.511719 297.558594 L 189.0625 294.671875 C 189.769531 293.355469 190.574219 292.113281 191.472656 290.941406 C 192.367188 289.773438 193.355469 288.671875 194.429688 287.636719 C 196.417969 285.722656 198.652344 284.074219 201.011719 282.621094 C 203.363281 281.175781 205.828125 279.921875 208.292969 278.785156 C 211.859375 277.140625 215.550781 275.671875 219.238281 274.203125 C 221.273438 273.394531 223.304688 272.585938 225.445312 271.691406 C 232.042969 268.933594 238.183594 265.9375 243.628906 262.082031 C 249.0625 258.238281 253.828125 253.53125 257.710938 247.347656 C 262.976562 238.96875 265.753906 229.355469 267.125 219.429688 C 268.5 209.464844 268.460938 199.1875 268.09375 189.523438 C 267.910156 184.597656 267.621094 179.625 267.332031 174.652344 C 267.234375 173.019531 267.140625 171.386719 267.050781 169.757812 C 266.878906 166.683594 266.714844 163.59375 266.597656 160.460938 C 266.480469 157.359375 266.410156 154.253906 266.425781 151.140625 C 266.445312 146.375 266.65625 141.109375 267.46875 135.976562 C 268.285156 130.808594 269.71875 125.773438 272.183594 121.5 L 273.4375 119.328125 L 270.96875 118.886719 C 267.027344 118.1875 263.441406 116.835938 260.46875 114.664062 C 257.734375 112.671875 255.53125 109.996094 254.050781 106.511719 C 253.441406 105.085938 252.910156 103.292969 252.570312 101.484375 M 253.601562 96.796875 C 253.503906 98.125 253.644531 99.683594 253.933594 101.230469 C 254.253906 102.941406 254.753906 104.628906 255.324219 105.96875 L 255.324219 105.972656 C 256.699219 109.214844 258.746094 111.699219 261.28125 113.550781 C 264.066406 115.582031 267.457031 116.855469 271.207031 117.523438 L 275.621094 118.308594 C 275.304688 118.859375 273.378906 122.179688 273.378906 122.195312 C 271.007812 126.304688 269.628906 131.175781 268.832031 136.191406 C 268.035156 141.246094 267.828125 146.441406 267.804688 151.148438 C 267.792969 154.222656 267.863281 157.316406 267.976562 160.410156 C 268.09375 163.472656 268.257812 166.574219 268.429688 169.679688 C 268.519531 171.3125 268.617188 172.945312 268.710938 174.578125 C 269 179.523438 269.289062 184.472656 269.476562 189.472656 C 269.84375 199.207031 269.882812 209.5625 268.492188 219.621094 C 267.097656 229.71875 264.265625 239.515625 258.882812 248.085938 C 254.894531 254.433594 250.003906 259.261719 244.425781 263.207031 C 238.867188 267.140625 232.648438 270.183594 225.972656 272.972656 C 223.996094 273.800781 221.871094 274.644531 219.746094 275.488281 C 216.101562 276.9375 212.453125 278.390625 208.871094 280.042969 C 206.441406 281.164062 204.023438 282.390625 201.738281 283.800781 C 199.457031 285.203125 197.300781 286.789062 195.386719 288.636719 C 194.363281 289.621094 193.425781 290.667969 192.570312 291.78125 C 191.71875 292.894531 190.953125 294.074219 190.285156 295.328125 L 187.511719 300.484375 L 184.742188 295.328125 C 184.070312 294.074219 183.304688 292.894531 182.453125 291.78125 C 181.601562 290.667969 180.660156 289.621094 179.636719 288.636719 C 177.71875 286.789062 175.5625 285.203125 173.285156 283.800781 C 171 282.390625 168.582031 281.164062 166.152344 280.042969 C 162.566406 278.390625 158.921875 276.9375 155.273438 275.488281 C 153.152344 274.644531 151.027344 273.796875 149.050781 272.972656 C 142.375 270.183594 136.15625 267.140625 130.597656 263.207031 C 125.019531 259.261719 120.128906 254.433594 116.140625 248.085938 C 110.757812 239.515625 107.925781 229.71875 106.53125 219.621094 C 105.140625 209.5625 105.179688 199.207031 105.546875 189.472656 C 105.734375 184.476562 106.023438 179.535156 106.3125 174.597656 C 106.40625 172.957031 106.5 171.320312 106.59375 169.679688 C 106.765625 166.574219 106.929688 163.472656 107.046875 160.410156 C 107.160156 157.316406 107.230469 154.222656 107.214844 151.148438 C 107.195312 146.441406 106.988281 141.246094 106.191406 136.191406 C 105.394531 131.179688 104.015625 126.300781 101.644531 122.195312 C 101.644531 122.179688 99.71875 118.859375 99.402344 118.308594 L 103.816406 117.523438 C 107.542969 116.859375 110.917969 115.59375 113.703125 113.574219 C 116.230469 111.742188 118.277344 109.277344 119.660156 106.058594 C 120.246094 104.699219 120.753906 103.007812 121.078125 101.292969 C 121.375 99.730469 121.519531 98.152344 121.421875 96.796875 L 121.175781 93.449219 L 124.539062 93.421875 C 132.296875 93.363281 140.078125 92.59375 147.71875 91.085938 C 155.160156 89.617188 162.457031 87.445312 169.453125 84.554688 C 171.570312 83.679688 173.675781 82.730469 175.75 81.707031 C 177.699219 80.742188 179.625 79.707031 181.5 78.601562 C 182.179688 78.199219 182.890625 77.773438 183.609375 77.316406 C 184.320312 76.863281 185.011719 76.398438 185.625 75.9375 L 187.511719 74.523438 L 189.398438 75.9375 C 190.011719 76.402344 190.703125 76.863281 191.414062 77.316406 C 192.132812 77.773438 192.84375 78.199219 193.527344 78.601562 C 195.398438 79.707031 197.324219 80.742188 199.277344 81.707031 C 201.347656 82.730469 203.453125 83.679688 205.570312 84.554688 C 212.566406 87.445312 219.863281 89.617188 227.304688 91.085938 C 234.945312 92.59375 242.726562 93.367188 250.484375 93.425781 L 253.847656 93.449219 Z M 253.601562 96.796875 " fill-opacity="1" fill-rule="nonzero"/></g><path fill="#1a1a1a" d="M 118.285156 168.097656 C 118.285156 168.097656 137.203125 164.308594 141.976562 162.304688 C 143.441406 161.691406 147.324219 159.605469 148.988281 159.03125 C 152.910156 157.679688 158.609375 155.4375 159.101562 155.164062 C 160.488281 154.398438 164.359375 151.628906 165.109375 151.328125 C 165.855469 151.03125 165.855469 150.988281 167.0625 150.601562 C 168.273438 150.21875 168.773438 150.214844 168.984375 149.792969 C 169.199219 149.367188 168.984375 149.449219 169.875 148.59375 C 170.765625 147.742188 170.90625 147.398438 171.796875 146.714844 C 172.6875 146.03125 173.644531 145.433594 173.644531 145.433594 C 173.644531 145.433594 174.320312 143.425781 175.035156 142.828125 C 175.746094 142.230469 176.027344 142.273438 176.492188 141.546875 C 176.953125 140.820312 176.953125 140.523438 177.308594 140.179688 C 177.664062 139.839844 177.34375 140.09375 177.984375 139.496094 C 178.625 138.898438 179.160156 138.601562 179.445312 137.488281 C 179.730469 136.378906 179.515625 135.523438 180.441406 134.457031 C 181.363281 133.390625 181.117188 133.304688 182.21875 132.535156 C 183.324219 131.765625 183.5 131.851562 184.921875 130.996094 C 186.34375 130.144531 187.695312 129.628906 189.511719 128.519531 C 191.324219 127.410156 190.808594 127.453125 191.789062 127.238281 C 192.765625 127.027344 192.039062 127.238281 192.765625 127.238281 C 193.496094 127.238281 195.238281 126.511719 196.269531 126.128906 C 197.300781 125.746094 197.765625 125.273438 198.546875 125.015625 C 199.328125 124.761719 199.96875 124.164062 201 123.820312 C 202.035156 123.480469 202.710938 122.625 203.066406 123.222656 C 203.421875 123.820312 204.308594 125.613281 204.664062 126.171875 C 205.019531 126.726562 204.984375 126.46875 205.09375 126.8125 C 205.199219 127.152344 204.523438 127.75 205.09375 127.75 C 205.660156 127.75 206.65625 127.75 206.65625 127.75 C 206.65625 127.75 207.027344 128.308594 207.136719 128.472656 C 207.246094 128.636719 207.511719 129.546875 207.761719 130.015625 C 208.011719 130.484375 208.152344 130.910156 208.152344 130.910156 L 203.207031 134.839844 C 203.207031 134.839844 207.15625 132.109375 208.152344 131.636719 C 209.148438 131.167969 208.328125 130.910156 210 130.699219 C 211.675781 130.484375 211.636719 130.441406 212.707031 129.800781 C 213.773438 129.160156 213.097656 129.246094 213.988281 129.03125 C 214.875 128.820312 214.519531 129.03125 215.621094 128.519531 C 216.726562 128.007812 216.546875 127.835938 217.6875 127.195312 C 218.824219 126.554688 219.464844 126.171875 220.105469 125.914062 C 220.746094 125.660156 221.597656 124.675781 222.949219 124.292969 C 224.300781 123.90625 223.984375 123.792969 225.546875 123.015625 C 227.113281 122.242188 227.503906 121.816406 227.789062 121.730469 C 228.074219 121.644531 229.28125 121.730469 229.28125 121.730469 C 229.28125 121.730469 229.28125 122.199219 229.851562 122.199219 C 230.421875 122.199219 230.882812 122.199219 230.882812 122.199219 C 230.882812 122.199219 231.203125 123.054688 231.808594 123.738281 C 232.414062 124.421875 232.625 124.460938 232.875 124.761719 C 233.125 125.0625 233.730469 125.144531 233.730469 125.144531 C 233.730469 125.144531 233.800781 125.957031 234.085938 126.085938 C 234.371094 126.214844 234.726562 125.957031 235.152344 126.257812 C 235.578125 126.554688 235.71875 127.027344 236.039062 127.878906 C 236.363281 128.734375 236.183594 128.265625 236.574219 129.03125 C 236.964844 129.800781 236.824219 129.800781 237.109375 130.1875 C 237.394531 130.570312 237.355469 130.230469 237.75 130.742188 C 238.140625 131.253906 237.890625 131.425781 238.28125 131.9375 C 238.675781 132.449219 238.566406 132.578125 239.242188 132.75 C 239.917969 132.917969 241.660156 132.492188 241.660156 132.492188 L 243.511719 132.234375 C 243.511719 132.234375 245.253906 131.554688 245.929688 131.765625 C 246.605469 131.980469 247.035156 131.808594 247.316406 132.234375 C 247.601562 132.664062 248.527344 134.5 248.527344 134.5 L 249.738281 135.738281 L 241.199219 140.734375 C 241.199219 140.734375 250.734375 135.566406 251.410156 135.527344 C 252.085938 135.484375 254.183594 135.269531 254.328125 135.011719 C 254.46875 134.757812 256.070312 133.261719 256.070312 133.261719 C 256.070312 133.261719 256.566406 132.320312 257.066406 132.960938 C 257.5625 133.605469 257.136719 133.476562 258.167969 133.988281 C 259.144531 134.472656 259.867188 134.382812 260.425781 134.335938 C 258.914062 140.101562 255.511719 155.921875 257.796875 174.582031 L 117.660156 172.671875 Z M 118.285156 168.097656 " fill-opacity="1" fill-rule="evenodd"/><path fill="#fefefe" d="M 201.230469 124.640625 C 201.230469 124.640625 201.300781 124.621094 200.449219 125.089844 C 199.59375 125.558594 199.539062 125.324219 199.042969 125.816406 C 198.546875 126.304688 198.9375 126.15625 198.101562 126.710938 C 197.265625 127.269531 197.550781 127.140625 196.960938 127.375 C 196.375 127.609375 196.320312 127.4375 195.824219 127.738281 C 195.324219 128.039062 195.203125 128.144531 194.898438 128.25 C 194.597656 128.359375 194.007812 128.550781 194.007812 128.550781 C 194.007812 128.550781 194.632812 128.101562 194.773438 128.035156 C 194.917969 127.972656 195.558594 127.652344 195.289062 127.628906 C 195.023438 127.609375 194.863281 127.523438 194.4375 127.738281 C 194.007812 127.949219 192.890625 128.25 192.890625 128.25 C 192.890625 128.25 193.546875 128.550781 192.65625 128.550781 C 191.769531 128.550781 191.394531 128.742188 191.109375 128.847656 C 190.824219 128.953125 190.898438 128.65625 190.558594 129.0625 C 190.222656 129.46875 190.488281 129.316406 189.953125 129.703125 C 189.421875 130.085938 189.332031 130.023438 189.03125 130.300781 C 188.726562 130.578125 188.796875 130.554688 187.945312 131.132812 C 187.089844 131.710938 184.921875 132.882812 184.921875 132.882812 C 184.921875 132.882812 186.878906 131.835938 187.410156 131.6875 C 187.945312 131.539062 188.710938 131.109375 188.851562 131.003906 C 188.992188 130.898438 188.640625 130.8125 189.492188 130.429688 C 190.34375 130.042969 189.832031 130.109375 190.433594 129.957031 C 191.039062 129.808594 191.359375 129.679688 191.484375 129.679688 C 191.609375 129.679688 192.695312 129.359375 192.695312 129.359375 C 192.695312 129.359375 191.839844 129.957031 191.394531 130.171875 C 190.949219 130.386719 191.003906 129.980469 190.523438 130.535156 C 190.042969 131.089844 190.0625 131.003906 189.792969 131.261719 C 189.527344 131.519531 187.890625 132.882812 187.890625 132.882812 C 187.890625 132.882812 189.917969 131.367188 190.398438 131.195312 C 190.878906 131.027344 191.054688 130.726562 191.679688 130.597656 C 192.304688 130.472656 193.191406 130.085938 193.476562 130.066406 C 193.761719 130.042969 193.777344 130.066406 194.578125 129.550781 C 195.378906 129.039062 195.664062 129.167969 196.234375 128.761719 C 196.800781 128.355469 198.136719 127.863281 198.136719 127.863281 C 198.136719 127.863281 197.265625 128.335938 196.855469 128.761719 C 196.445312 129.191406 196.445312 128.914062 195.683594 129.617188 C 194.917969 130.320312 194.382812 130.640625 194.382812 130.640625 C 194.382812 130.640625 195.804688 129.980469 196.214844 129.679688 C 196.625 129.382812 196.269531 129.339844 197.191406 128.890625 C 198.117188 128.441406 198.152344 128.335938 198.457031 128.164062 C 198.757812 127.992188 198.492188 128.015625 199.042969 127.695312 C 199.59375 127.375 199.933594 127.203125 200.253906 127.03125 C 200.574219 126.859375 200.539062 126.605469 201.234375 126.285156 C 201.925781 125.964844 202.28125 125.707031 202.28125 125.707031 C 202.28125 125.707031 202.777344 125.324219 201.871094 125.75 C 200.964844 126.175781 201.570312 125.984375 200.820312 126.261719 C 200.074219 126.539062 199.859375 126.605469 199.859375 126.605469 C 199.859375 126.605469 200.5 125.921875 200.894531 125.707031 C 201.285156 125.496094 201.5 125.28125 201.746094 125.171875 C 201.996094 125.066406 202.316406 124.832031 202.316406 124.832031 L 202.417969 124.640625 L 202.328125 124.058594 L 202.121094 124.148438 C 202.121094 124.148438 201.839844 124.203125 201.742188 124.382812 C 201.644531 124.566406 201.230469 124.640625 201.230469 124.640625 " fill-opacity="1" fill-rule="evenodd"/><path fill="#fefefe" d="M 201.96875 131.007812 C 201.96875 131.007812 202.570312 130.914062 201.398438 131.542969 C 200.222656 132.171875 199.941406 132.484375 199.460938 132.675781 C 198.980469 132.867188 199.335938 132.417969 198.730469 132.996094 C 198.125 133.570312 198.160156 133.527344 197.734375 133.871094 C 197.308594 134.210938 197.46875 133.976562 196.898438 134.53125 C 196.328125 135.085938 195.707031 135.640625 195.226562 135.921875 C 194.746094 136.199219 194.734375 135.75 194.136719 136.414062 C 193.535156 137.074219 193.628906 137.117188 193.199219 137.308594 C 192.769531 137.5 191.152344 138.910156 191.152344 138.910156 C 191.152344 138.910156 191.972656 137.90625 192.273438 137.714844 C 192.578125 137.523438 192.789062 137.222656 192.984375 136.96875 C 193.183594 136.710938 193.289062 136.285156 193.554688 136.089844 C 193.820312 135.898438 194.136719 135.835938 194.136719 135.726562 C 194.136719 135.621094 194.925781 135.210938 195.082031 134.957031 C 195.242188 134.703125 195.082031 134.957031 194.710938 134.957031 C 194.335938 134.957031 194.265625 134.355469 193.625 134.957031 C 192.984375 135.558594 193.226562 135.257812 192.769531 135.683594 C 192.308594 136.113281 192.578125 136.046875 191.863281 136.410156 C 191.152344 136.773438 191.402344 136.453125 190.851562 137.03125 C 190.300781 137.605469 190.425781 137.585938 189.996094 137.886719 C 189.570312 138.183594 186.492188 139.914062 186.492188 139.914062 C 186.492188 139.914062 187.828125 138.71875 188.042969 138.589844 C 188.253906 138.460938 188.023438 138.632812 188.839844 138.054688 C 189.660156 137.480469 189.605469 137.628906 190.085938 137.074219 C 190.566406 136.515625 190.441406 136.558594 190.921875 136.199219 C 191.402344 135.835938 191.742188 135.457031 191.742188 135.457031 C 191.742188 135.457031 190.921875 135.664062 190.28125 136.070312 C 189.640625 136.472656 189.890625 136.238281 189.195312 136.515625 C 188.503906 136.796875 188.324219 136.878906 188.324219 136.878906 C 188.324219 136.878906 186.457031 137.285156 185.996094 137.585938 C 185.53125 137.882812 185.675781 137.5625 185.035156 138.117188 C 184.394531 138.675781 184.410156 138.609375 183.964844 139.015625 C 183.523438 139.421875 183.609375 139.675781 183.203125 139.914062 C 182.792969 140.148438 183.167969 139.871094 182.492188 140.511719 C 181.8125 141.152344 180.78125 142.15625 180.78125 142.15625 C 180.78125 142.15625 182.757812 140.894531 183.007812 140.746094 C 183.253906 140.597656 183.488281 140.277344 184.109375 139.847656 C 184.730469 139.421875 184.859375 139.144531 185.121094 139.101562 C 185.386719 139.058594 186.101562 138.609375 186.101562 138.609375 C 186.101562 138.609375 185.070312 139.570312 184.25 140.125 C 183.433594 140.679688 183.363281 140.597656 182.863281 141.109375 C 182.367188 141.621094 182.757812 141.6875 181.921875 142.15625 C 181.085938 142.625 181.691406 142.367188 180.78125 142.882812 C 179.875 143.394531 179.589844 143.585938 179.199219 143.863281 C 178.808594 144.140625 179.804688 143.179688 179.804688 143.179688 C 179.804688 143.179688 179.425781 143.34375 179.109375 143.628906 C 178.792969 143.914062 178.898438 143.84375 178.507812 144.140625 C 178.113281 144.441406 177.546875 144.847656 177.421875 144.933594 C 177.296875 145.019531 176.070312 146.339844 175.304688 146.8125 C 174.539062 147.28125 174.519531 147.089844 173.953125 147.582031 C 173.382812 148.070312 173.847656 147.988281 173.152344 148.382812 C 172.457031 148.777344 169.738281 150.570312 169.738281 150.570312 C 169.738281 150.570312 172.851562 149.128906 173.207031 148.753906 C 173.5625 148.382812 173.347656 148.308594 174.433594 147.878906 C 175.519531 147.453125 175.800781 147.386719 176.28125 147.152344 C 176.761719 146.917969 176.316406 147.003906 177.582031 146.511719 C 178.84375 146.019531 179.019531 145.828125 179.359375 145.722656 C 179.699219 145.617188 180.835938 144.953125 180.835938 144.953125 C 180.835938 144.953125 179.234375 146.042969 178.558594 146.425781 C 177.882812 146.8125 178.328125 146.40625 177.457031 147.066406 C 176.585938 147.730469 176.40625 147.941406 175.714844 148.382812 C 175.019531 148.820312 174.113281 149.367188 174.113281 149.367188 C 174.113281 149.367188 175.179688 148.671875 176.140625 148.382812 C 177.101562 148.09375 177.011719 147.902344 178.753906 147.066406 C 180.496094 146.234375 180.816406 146.0625 181.722656 145.617188 C 182.632812 145.167969 182.5625 144.890625 183.609375 144.484375 C 184.660156 144.078125 185.335938 143.394531 186.492188 142.988281 C 187.648438 142.582031 191.046875 139.914062 191.046875 139.914062 C 191.046875 139.914062 189.90625 141.046875 189.070312 141.601562 C 188.234375 142.15625 188.394531 141.984375 187.734375 142.582031 C 187.078125 143.179688 186.507812 143.609375 186.507812 143.609375 C 186.507812 143.609375 189.285156 141.855469 189.871094 141.601562 C 190.457031 141.34375 190.671875 140.785156 191.203125 140.785156 C 191.738281 140.785156 192.058594 140.234375 193.054688 139.65625 C 194.050781 139.082031 195.082031 138.289062 195.082031 138.289062 C 195.082031 138.289062 194.230469 139.230469 193.835938 139.550781 C 193.445312 139.871094 193.160156 140.042969 192.929688 140.234375 C 192.699219 140.425781 192.644531 140.832031 192.414062 141.066406 C 192.183594 141.300781 193.035156 140.703125 192.183594 141.300781 C 191.328125 141.898438 190.742188 142.261719 190.742188 142.261719 C 190.742188 142.261719 192.378906 141.34375 192.574219 141.300781 C 192.769531 141.257812 192.867188 141.082031 193.5 140.785156 C 194.132812 140.488281 195.296875 139.636719 195.296875 139.636719 C 195.296875 139.636719 194.425781 140.640625 193.996094 140.960938 C 193.570312 141.28125 193.839844 140.960938 193.304688 141.429688 C 192.765625 141.898438 192.644531 142.15625 191.988281 142.582031 C 191.328125 143.011719 191.167969 143.179688 191.027344 143.308594 C 190.882812 143.4375 191.773438 143.03125 192.148438 142.839844 C 192.519531 142.648438 193.535156 141.941406 193.535156 141.941406 C 193.535156 141.941406 193.804688 141.964844 194.132812 141.816406 C 194.460938 141.664062 195.847656 140.46875 195.847656 140.46875 C 195.847656 140.46875 195.011719 141.300781 194.796875 141.601562 C 194.585938 141.898438 194.132812 142.328125 194.132812 142.328125 C 194.132812 142.328125 195.152344 141.730469 195.347656 141.6875 C 195.542969 141.644531 196.308594 140.960938 196.558594 140.746094 C 196.808594 140.53125 196.558594 140.363281 197.519531 140.0625 C 198.480469 139.765625 198.085938 140.042969 198.675781 139.570312 C 199.261719 139.101562 199.152344 138.78125 200.1875 138.226562 C 201.21875 137.671875 201.234375 137.992188 201.929688 137.160156 C 202.625 136.324219 203.335938 135.621094 203.335938 135.621094 C 203.335938 135.621094 202.144531 135.921875 201.839844 136.089844 C 201.539062 136.261719 201.679688 135.960938 201.128906 136.390625 C 200.578125 136.816406 200.222656 137.007812 200.347656 136.925781 C 200.46875 136.839844 201.378906 135.683594 201.554688 135.664062 C 201.734375 135.640625 201.503906 135.792969 201.929688 135.578125 C 202.355469 135.363281 202.332031 135.214844 202.605469 135.046875 C 202.878906 134.875 202.425781 135.535156 202.878906 134.875 C 203.335938 134.210938 203.832031 133.335938 203.832031 133.335938 C 203.832031 133.335938 203.085938 133.550781 203.246094 133.25 C 203.40625 132.953125 203.546875 132.652344 203.546875 132.652344 L 203.601562 132.417969 C 203.601562 132.417969 203.328125 132.441406 203.101562 132.652344 C 202.878906 132.867188 202.550781 132.972656 202.285156 133.144531 C 202.019531 133.316406 202.355469 133.144531 201.785156 133.550781 C 201.21875 133.957031 200.96875 133.933594 200.523438 134.296875 C 200.078125 134.660156 199.777344 134.960938 199.28125 135.300781 C 198.78125 135.644531 197.980469 136.15625 197.980469 136.15625 C 197.980469 136.15625 199.566406 134.765625 199.847656 134.554688 C 200.132812 134.339844 200.597656 133.914062 200.96875 133.679688 C 201.34375 133.441406 201.414062 133.335938 201.734375 133.058594 C 202.054688 132.78125 202.035156 132.910156 202.160156 132.652344 C 202.285156 132.394531 202.214844 132.652344 202.339844 132.171875 C 202.464844 131.691406 202.445312 131.777344 202.515625 131.519531 C 202.585938 131.265625 202.878906 131.003906 202.878906 131.003906 L 202.878906 130.496094 C 202.882812 130.496094 202.09375 130.796875 201.96875 131.007812 " fill-opacity="1" fill-rule="evenodd"/><path fill="#fefefe" d="M 232.242188 126.824219 C 231.671875 127.292969 231.726562 127.230469 231.496094 127.378906 C 231.261719 127.527344 231.832031 126.996094 231.101562 127.613281 C 230.375 128.230469 230.445312 128.273438 229.859375 128.660156 C 229.269531 129.042969 229.21875 129.066406 229.21875 129.066406 C 229.21875 129.066406 230.617188 128.382812 230.878906 128.296875 C 231.136719 128.210938 230.996094 128.039062 231.15625 128.1875 C 231.316406 128.339844 231.53125 128.253906 231.421875 128.660156 C 231.316406 129.066406 231.28125 129.066406 231.28125 129.066406 C 231.28125 129.066406 231.222656 129.320312 230.878906 129.75 C 230.535156 130.175781 230.800781 129.941406 230.339844 130.367188 C 229.875 130.796875 229.929688 130.753906 229.574219 131.050781 C 229.21875 131.351562 228.914062 131.691406 228.738281 131.839844 C 228.558594 131.992188 228.472656 132.140625 228.097656 132.332031 C 227.722656 132.523438 228.773438 132.011719 229.234375 131.691406 C 229.699219 131.371094 230.339844 130.773438 230.730469 130.753906 C 231.121094 130.730469 231.601562 130.625 231.601562 130.625 C 231.601562 130.625 231.085938 131.09375 230.800781 131.308594 C 230.515625 131.523438 230.277344 131.605469 230.277344 131.605469 C 230.277344 131.605469 230.710938 131.519531 231.15625 131.351562 C 231.601562 131.179688 231.449219 131.074219 231.992188 131.050781 C 232.539062 131.03125 232.847656 130.902344 233.023438 130.882812 C 233.203125 130.859375 233.574219 130.839844 233.574219 130.839844 L 232.578125 131.308594 C 232.578125 131.308594 232.015625 131.394531 231.40625 131.886719 C 230.796875 132.375 231.191406 131.667969 230.535156 132.375 C 229.875 133.082031 230 133.144531 229.46875 133.636719 C 228.933594 134.125 228.3125 134.492188 228.019531 134.703125 C 227.722656 134.917969 228.292969 134.640625 227.4375 135.003906 C 226.585938 135.367188 225.605469 135.769531 225.339844 135.898438 C 225.074219 136.027344 226.316406 135.324219 226.726562 134.960938 C 227.136719 134.597656 227.367188 134.382812 227.707031 134.0625 C 228.042969 133.742188 228.363281 133.335938 228.363281 133.335938 C 228.363281 133.335938 228.738281 132.910156 228.042969 133.421875 C 227.347656 133.933594 227.582031 133.847656 227.117188 134.125 C 226.65625 134.40625 226.550781 134.46875 225.925781 134.746094 C 225.304688 135.023438 225.730469 134.789062 224.949219 135.257812 C 224.167969 135.730469 224.09375 135.644531 223.5625 136.21875 C 223.027344 136.796875 221.070312 137.628906 221.070312 137.628906 C 221.070312 137.628906 221.871094 137.054688 222.210938 136.777344 C 222.546875 136.496094 223.472656 135.898438 223.648438 135.664062 C 223.828125 135.429688 223.863281 135.28125 224.113281 135.109375 C 224.363281 134.9375 224.328125 135.003906 225 134.53125 C 225.679688 134.0625 226.886719 132.867188 226.886719 132.867188 C 226.886719 132.867188 225.875 133.359375 225.570312 133.488281 C 225.269531 133.613281 225.234375 133.402344 224.71875 133.65625 C 224.203125 133.914062 224.308594 133.847656 223.828125 134.191406 C 223.347656 134.53125 223.402344 134.492188 223.0625 134.703125 C 222.726562 134.917969 220.359375 136.433594 220.359375 136.433594 C 220.359375 136.433594 221.820312 135.128906 221.996094 135.046875 C 222.175781 134.960938 222.796875 134.511719 223.011719 134.339844 C 223.222656 134.167969 224.929688 132.632812 224.929688 132.632812 C 224.929688 132.632812 223.828125 132.972656 223.207031 133.507812 C 222.582031 134.042969 222.441406 133.890625 221.550781 134.617188 C 220.664062 135.34375 220.664062 135.449219 219.828125 135.964844 C 218.992188 136.476562 218.527344 136.605469 218.046875 137.117188 C 217.566406 137.628906 217.105469 137.351562 216.929688 137.628906 C 216.75 137.90625 215.398438 138.996094 214.882812 139.292969 C 214.367188 139.59375 213.851562 139.851562 213.652344 140.128906 C 213.457031 140.40625 212.460938 141.089844 211.839844 141.578125 C 211.21875 142.070312 211.144531 142.261719 210.753906 142.542969 C 210.363281 142.820312 210.453125 143.394531 210.0625 143.867188 C 209.671875 144.335938 209.867188 144.015625 209.5625 144.507812 C 209.261719 144.996094 208.355469 146.171875 208.355469 146.171875 C 208.355469 146.171875 210.363281 144.953125 210.628906 144.675781 C 210.898438 144.398438 211.449219 143.546875 212.320312 143.203125 C 213.191406 142.863281 213.851562 142.414062 214.472656 141.984375 C 215.09375 141.558594 215.132812 141.367188 215.824219 141.066406 C 216.519531 140.769531 217.835938 139.765625 217.835938 139.765625 C 217.835938 139.765625 216.445312 141.003906 215.769531 141.386719 C 215.09375 141.773438 214.988281 141.496094 214.472656 141.988281 C 213.957031 142.476562 213.371094 143.074219 212.820312 143.417969 C 212.265625 143.757812 211.894531 143.886719 211.589844 144.1875 C 211.289062 144.484375 212.054688 144.035156 210.96875 144.804688 C 209.882812 145.574219 209.632812 145.917969 209.332031 146.042969 C 209.03125 146.171875 207.269531 147.324219 207.269531 147.324219 C 207.269531 147.324219 209.972656 146.152344 210.613281 145.765625 C 211.253906 145.382812 212.675781 145.082031 213.707031 144.273438 C 214.738281 143.460938 217.691406 140.535156 218.1875 140.535156 C 218.6875 140.535156 220.421875 139.445312 220.421875 139.445312 L 221.285156 139.0625 C 221.285156 139.0625 220.351562 139.914062 219.464844 140.535156 C 218.582031 141.152344 218.546875 140.984375 217.835938 141.625 C 217.121094 142.265625 217.40625 142.09375 216.875 142.476562 C 216.339844 142.863281 215.949219 143.074219 215.949219 143.074219 C 215.949219 143.074219 217.40625 142.777344 218.828125 142.007812 C 220.253906 141.238281 220.289062 141.152344 221.710938 140.085938 C 221.710938 140.085938 217.691406 143.160156 217.015625 143.460938 C 216.339844 143.757812 216.765625 143.203125 215.519531 144.144531 C 214.277344 145.082031 214.492188 144.699219 213.457031 145.640625 C 212.425781 146.578125 213.246094 146.707031 211.894531 147.324219 C 210.542969 147.945312 210.933594 147.796875 210.078125 148.382812 C 209.226562 148.96875 207.765625 150.570312 207.765625 150.570312 L 205.84375 151.789062 C 205.84375 151.789062 207.054688 152.386719 207.554688 151.789062 C 208.050781 151.191406 208.871094 150.570312 208.871094 150.570312 C 208.871094 150.570312 208.015625 152.472656 207.765625 152.6875 C 207.515625 152.902344 207.234375 152.859375 206.628906 153.285156 C 206.023438 153.710938 205.933594 153.96875 204.886719 154.523438 C 203.835938 155.078125 202.882812 155.675781 202.882812 155.675781 C 202.882812 155.675781 207.410156 153.710938 207.800781 153.457031 C 208.191406 153.199219 207.800781 153.242188 209.117188 152.472656 C 210.433594 151.703125 211.039062 151.277344 212.25 150.570312 C 213.457031 149.867188 212.996094 149.738281 214.667969 148.714844 C 216.339844 147.6875 216.453125 147.390625 218.230469 146.363281 C 220.003906 145.339844 219.578125 145.679688 221.070312 144.570312 C 222.566406 143.460938 225.019531 141.152344 225.019531 141.152344 C 225.019531 141.152344 224.058594 141.367188 223.347656 141.710938 C 222.636719 142.050781 223.347656 141.625 222.28125 142.222656 C 221.214844 142.820312 220.859375 142.992188 220.074219 143.460938 C 219.292969 143.929688 218.230469 144.484375 218.230469 144.484375 C 218.230469 144.484375 220.183594 142.4375 221.070312 142.09375 C 221.960938 141.75 221.820312 141.125 222.53125 141.125 C 223.242188 141.125 223.773438 141.28125 224.804688 140.535156 C 225.839844 139.785156 225.445312 140 226.300781 139.53125 C 227.15625 139.058594 228.828125 137.480469 229.359375 137.136719 C 229.894531 136.796875 229.859375 136.667969 230.570312 136.496094 C 231.28125 136.328125 231.460938 136.242188 232.03125 136.027344 C 232.597656 135.8125 233.167969 135.515625 233.578125 135.386719 C 233.984375 135.257812 234.128906 135.214844 234.410156 135.214844 C 234.695312 135.214844 235.195312 135.089844 235.585938 134.917969 C 235.976562 134.746094 235.871094 134.703125 236.40625 134.40625 C 236.9375 134.105469 236.226562 133.890625 237.542969 133.808594 C 238.859375 133.722656 238.859375 133.722656 238.859375 133.722656 C 238.859375 133.722656 238.707031 133.613281 238.28125 133.371094 C 237.855469 133.125 237.320312 132.886719 237.25 132.566406 C 237.175781 132.25 237.335938 132.054688 237.007812 132.109375 C 236.679688 132.164062 236.226562 132.207031 236.226562 132.207031 C 236.226562 132.207031 236.164062 132.109375 235.90625 132.28125 C 235.648438 132.449219 232.757812 134.246094 232.757812 134.246094 C 232.757812 134.246094 235.335938 132.441406 235.523438 132.269531 C 235.710938 132.097656 235.84375 131.949219 236.066406 131.746094 C 236.289062 131.542969 236.464844 131.328125 236.464844 131.328125 C 236.464844 131.328125 236.734375 131.289062 236.464844 131.105469 C 236.199219 130.925781 236.003906 130.847656 235.675781 130.453125 C 235.34375 130.058594 235.265625 129.972656 235.210938 129.8125 C 235.160156 129.652344 235.085938 129.472656 234.980469 129.398438 C 234.875 129.324219 234.632812 129.046875 234.570312 129.046875 C 234.507812 129.046875 234.554688 129.054688 234.296875 129.078125 C 234.039062 129.097656 233.726562 129.089844 233.488281 129.097656 C 233.246094 129.109375 233.175781 128.734375 233.050781 128.820312 C 232.925781 128.90625 231.796875 129.683594 231.796875 129.683594 C 231.796875 129.683594 232.75 128.84375 232.828125 128.757812 C 232.910156 128.671875 233.023438 128.574219 233.085938 128.203125 C 233.148438 127.828125 232.8125 128.136719 233.121094 127.539062 C 233.433594 126.941406 233.320312 127.136719 233.46875 126.855469 C 233.621094 126.574219 233.601562 126.121094 233.601562 126.121094 C 233.601562 126.121094 233.699219 125.789062 233.59375 125.851562 C 233.488281 125.917969 233.21875 126.035156 233.058594 126.195312 C 232.304688 126.949219 232.722656 126.425781 232.242188 126.824219 " fill-opacity="1" fill-rule="evenodd"/><path fill="#fefefe" d="M 228.933594 123.074219 C 228.933594 123.074219 228.710938 123.054688 228.371094 123.265625 C 228.035156 123.480469 228.15625 123.222656 227.855469 123.597656 C 227.554688 123.972656 227.625 123.949219 227.421875 124.066406 C 227.214844 124.1875 227.214844 124.109375 226.949219 124.269531 C 226.679688 124.429688 226.175781 124.613281 225.960938 124.71875 C 225.75 124.828125 224.789062 125.265625 224.789062 125.265625 C 224.789062 125.265625 225.714844 124.644531 225.828125 124.601562 C 225.941406 124.558594 226.183594 124.324219 226.441406 124.167969 C 226.699219 124.015625 226.246094 124.167969 226.183594 124.167969 C 226.121094 124.167969 225.835938 124.238281 225.515625 124.472656 C 225.199219 124.707031 225.144531 124.644531 224.964844 124.878906 C 224.789062 125.113281 224.617188 125.027344 224.226562 125.402344 C 223.835938 125.777344 223.753906 125.90625 223.390625 126.160156 C 223.027344 126.417969 222.75 126.585938 222.332031 126.867188 C 221.914062 127.144531 220.871094 127.6875 220.871094 127.6875 C 220.871094 127.6875 222.121094 127.207031 222.457031 127.070312 C 222.792969 126.929688 223.4375 126.640625 223.675781 126.46875 C 223.917969 126.300781 224.058594 126.101562 224.582031 125.84375 C 225.105469 125.585938 225.328125 125.445312 225.730469 125.242188 C 226.128906 125.039062 226.585938 124.804688 226.585938 124.804688 C 226.585938 124.804688 226.351562 125.382812 226.113281 125.382812 C 225.871094 125.382812 225.820312 125.621094 225.410156 125.84375 C 225 126.066406 224.769531 126.226562 224.554688 126.375 C 224.554688 126.375 225.269531 126.160156 225.464844 126 C 225.660156 125.84375 226.09375 125.722656 226.378906 125.585938 C 226.664062 125.445312 227.019531 125.230469 227.261719 125.0625 C 227.5 124.890625 227.632812 124.675781 227.902344 124.515625 C 228.167969 124.355469 228.085938 124.34375 228.488281 124.144531 C 228.886719 123.941406 229.128906 123.757812 229.394531 123.566406 C 229.660156 123.375 229.375 123.480469 229.769531 123.277344 C 230.160156 123.074219 230.445312 122.625 230.445312 122.625 C 230.445312 122.625 229.980469 122.667969 229.734375 122.785156 C 229.484375 122.902344 229.519531 122.863281 229.375 122.914062 C 229.234375 122.96875 228.933594 123.074219 228.933594 123.074219 " fill-opacity="1" fill-rule="evenodd"/><path fill="#fefefe" d="M 149.144531 161.078125 C 149.570312 160.945312 151.171875 160.132812 151.929688 160.046875 C 152.683594 159.964844 152.636719 159.800781 153.863281 159.324219 C 155.089844 158.847656 154.996094 158.902344 156.035156 158.445312 C 157.070312 157.988281 157.070312 157.945312 158.296875 157.46875 C 159.527344 156.992188 159.714844 156.886719 161.128906 156.390625 C 162.546875 155.894531 162.59375 155.804688 163.773438 155.375 C 164.953125 154.945312 163.679688 155.257812 165.660156 154.613281 C 167.644531 153.96875 167.503906 153.234375 168.917969 153.082031 C 170.332031 152.925781 173.871094 151.332031 173.871094 151.332031 C 173.871094 151.332031 172.125 152.730469 171.65625 152.78125 C 171.183594 152.832031 171.183594 152.855469 170.097656 153.527344 C 169.011719 154.203125 167.03125 155.1875 167.03125 155.1875 C 167.03125 155.1875 169.53125 154.230469 170.097656 153.957031 C 170.664062 153.679688 170.757812 153.625 171.371094 153.347656 C 171.984375 153.066406 171.984375 152.746094 172.527344 152.683594 C 173.070312 152.625 173.378906 152.164062 174.179688 151.800781 C 174.980469 151.433594 175.003906 151.472656 176.019531 150.828125 C 177.035156 150.183594 176.492188 150.136719 178.378906 149.246094 C 180.265625 148.355469 180.242188 148.335938 181.304688 147.816406 C 182.367188 147.292969 184.445312 146.082031 184.445312 146.082031 C 184.445312 146.082031 182.957031 147.378906 182.226562 147.90625 C 181.496094 148.433594 181.660156 148.160156 180.691406 148.886719 C 179.722656 149.609375 180.171875 149.347656 179.488281 149.828125 C 178.804688 150.308594 178.097656 150.5625 177.671875 150.917969 C 177.246094 151.269531 173.917969 153.363281 173.917969 153.363281 C 173.917969 153.363281 177.175781 151.449219 177.578125 151.300781 C 177.980469 151.148438 178.496094 151.203125 179.132812 150.757812 C 179.773438 150.308594 180.644531 149.605469 180.644531 149.605469 L 179.890625 150.675781 C 179.890625 150.675781 178.945312 151.0625 178.496094 151.496094 C 178.050781 151.929688 178.285156 151.96875 177.671875 152.386719 C 177.058594 152.808594 176.539062 153.226562 176.539062 153.226562 C 176.539062 153.226562 176.824219 153.539062 177.4375 153.171875 C 178.050781 152.804688 178.191406 152.332031 178.589844 152.285156 C 178.992188 152.242188 179.699219 151.898438 179.960938 151.871094 C 180.21875 151.839844 180.125 151.9375 181.140625 151.3125 C 182.15625 150.691406 182.25 150.414062 182.554688 150.382812 C 182.863281 150.347656 183.664062 149.902344 183.664062 149.902344 C 183.664062 149.902344 183.21875 150.722656 182.746094 151.03125 C 182.273438 151.339844 182.011719 151.386719 181.1875 152.003906 C 180.359375 152.617188 180.714844 152.34375 179.679688 153.097656 C 178.640625 153.851562 178.804688 153.683594 177.953125 154.269531 C 177.105469 154.851562 175.3125 156.03125 175.3125 156.03125 C 175.3125 156.03125 178.875 154.402344 179.15625 154.261719 C 179.441406 154.125 179.722656 153.816406 180.195312 153.617188 C 180.667969 153.414062 182.4375 152.667969 182.4375 152.667969 C 182.4375 152.667969 180.125 154.5 179.371094 155.09375 C 178.613281 155.691406 178.710938 155.359375 177.859375 156.328125 C 177.011719 157.296875 175.925781 157.480469 174.320312 158.320312 C 172.714844 159.15625 172.808594 159.148438 171.394531 159.984375 C 169.980469 160.824219 170.425781 160.773438 168.609375 161.742188 C 166.796875 162.710938 166.523438 161.839844 164.898438 162.617188 C 163.269531 163.394531 163.574219 163.144531 161.828125 164.0625 C 156.511719 166.859375 156.195312 166.742188 150.621094 169.191406 C 150.621094 169.191406 152.238281 167.75 152.949219 167.457031 C 155.277344 166.496094 153.578125 167.042969 155.585938 165.730469 C 156.058594 165.425781 157.644531 164.589844 159.015625 163.753906 C 160.382812 162.921875 159.882812 163 160.351562 162.648438 C 160.824219 162.296875 161.082031 161.925781 162.429688 161.09375 C 163.773438 160.265625 163.445312 159.917969 164.824219 159.445312 C 166.203125 158.972656 173.472656 154.84375 173.472656 154.84375 C 173.472656 154.84375 169.460938 156.523438 168.894531 156.882812 C 168.328125 157.246094 167.714844 157.335938 166.910156 157.914062 C 166.109375 158.492188 165.214844 158.65625 164.316406 159.050781 C 163.417969 159.449219 162.429688 159.707031 161.863281 159.769531 C 161.296875 159.832031 160.871094 160.199219 159.878906 160.691406 C 158.890625 161.183594 159.21875 160.933594 158.132812 161.523438 C 157.046875 162.113281 154.40625 163 154.40625 163 C 154.40625 163 155.867188 161.558594 156.246094 161.390625 C 156.625 161.21875 158.230469 160.167969 158.605469 160.125 C 158.984375 160.085938 160.023438 159.652344 160.964844 159.054688 C 161.910156 158.460938 162.5 158.054688 163.136719 157.6875 C 163.773438 157.316406 164.824219 156.476562 164.824219 156.476562 C 164.824219 156.476562 162.332031 157.6875 161.671875 158.019531 C 161.011719 158.347656 160.917969 158.164062 159.925781 158.722656 C 158.9375 159.277344 158.9375 158.464844 157.378906 159.449219 C 155.820312 160.433594 154.78125 160.546875 153.792969 160.65625 C 152.800781 160.761719 152.660156 161.269531 150.960938 161.796875 C 149.261719 162.324219 147.234375 162.976562 147.234375 162.976562 L 144.589844 163.5625 C 144.589844 163.5625 146.289062 162.4375 146.667969 162.269531 C 147.042969 162.097656 147.609375 162.230469 148.035156 161.734375 C 148.457031 161.238281 149.144531 161.078125 149.144531 161.078125 " fill-opacity="1" fill-rule="evenodd"/><path fill="#fefefe" d="M 214.96875 134.40625 C 214.96875 134.40625 215.199219 134.0625 214.402344 134.597656 C 213.601562 135.128906 213.867188 134.894531 213.296875 135.300781 C 212.726562 135.707031 212.726562 135.558594 212.230469 135.984375 C 211.730469 136.414062 211.695312 136.371094 211.074219 136.925781 C 210.449219 137.480469 210.523438 137.457031 209.972656 137.84375 C 209.421875 138.226562 209.597656 138.011719 209.097656 138.398438 C 208.601562 138.785156 207.480469 139.488281 207.480469 139.488281 C 207.480469 139.488281 209.632812 138.441406 209.847656 138.292969 C 210.058594 138.140625 210.195312 137.972656 210.71875 137.609375 C 211.242188 137.246094 211.679688 136.890625 211.945312 136.890625 C 212.210938 136.890625 212.570312 136.667969 212.570312 136.667969 C 212.570312 136.667969 211.617188 137.332031 211.429688 137.5 C 211.242188 137.671875 211.339844 137.4375 210.808594 137.886719 C 210.273438 138.335938 209.792969 138.65625 209.792969 138.65625 C 209.792969 138.65625 211.109375 137.863281 211.484375 137.738281 C 211.855469 137.609375 211.890625 137.46875 212.390625 137.179688 C 212.890625 136.890625 212.925781 136.839844 213.777344 136.390625 C 214.632812 135.941406 214.808594 135.769531 215.324219 135.429688 C 215.839844 135.085938 216 134.855469 216.410156 134.574219 C 216.820312 134.296875 217.816406 133.292969 217.816406 133.292969 C 217.816406 133.292969 215.984375 134.511719 215.503906 134.851562 C 215.023438 135.195312 215.09375 135.066406 214.613281 135.367188 C 214.132812 135.664062 214.3125 135.578125 213.777344 135.769531 C 213.242188 135.964844 212.941406 136.089844 212.941406 136.089844 C 212.941406 136.089844 213.742188 135.449219 213.882812 135.386719 C 214.027344 135.324219 213.882812 135.429688 214.222656 135.171875 C 214.558594 134.917969 214.96875 134.40625 214.96875 134.40625 " fill-opacity="1" fill-rule="evenodd"/><path fill="#fefefe" d="M 200.152344 146.515625 C 199.8125 146.707031 200.0625 146.320312 199.246094 146.941406 C 198.425781 147.558594 198.621094 147.207031 198.125 147.796875 C 197.625 148.382812 197.824219 148.273438 197.253906 148.820312 C 196.683594 149.367188 196.898438 149.355469 196.203125 149.78125 C 195.511719 150.210938 195.667969 150.207031 195.171875 150.570312 C 194.671875 150.933594 194.691406 150.957031 194.246094 151.210938 C 193.800781 151.46875 193.375 151.640625 193.234375 151.726562 C 193.089844 151.8125 194.035156 151.019531 194.195312 150.957031 C 194.355469 150.890625 194.671875 150.292969 195.101562 150.039062 C 195.527344 149.78125 195.277344 149.613281 195.792969 149.367188 C 196.308594 149.121094 197.199219 148.136719 197.199219 148.136719 C 197.199219 148.136719 196.382812 148.644531 195.988281 148.882812 C 195.597656 149.121094 195.667969 148.953125 195.1875 149.367188 C 194.707031 149.78125 194.691406 149.738281 194.316406 150.039062 C 193.945312 150.335938 193.578125 150.421875 193.21875 150.847656 C 192.859375 151.277344 192.519531 151.730469 192.253906 151.730469 C 191.988281 151.730469 191.808594 151.875 191.203125 152.34375 C 190.601562 152.8125 189.871094 153.371094 189.410156 153.753906 C 188.945312 154.136719 187.414062 155.015625 187.414062 155.015625 C 187.414062 155.015625 189.355469 154.222656 189.53125 154.117188 C 189.710938 154.011719 190.492188 153.496094 190.742188 153.347656 C 190.992188 153.199219 191.222656 153.089844 191.472656 152.984375 C 191.71875 152.878906 192.132812 152.601562 192.449219 152.492188 C 192.449219 152.492188 191.523438 153.433594 190.796875 153.902344 C 190.066406 154.375 190.367188 154.628906 189.445312 155.011719 C 188.519531 155.398438 187.753906 155.332031 187.414062 155.910156 C 187.078125 156.488281 186.136719 157.019531 185.316406 157.511719 C 184.5 158.003906 183.308594 158.878906 183.308594 158.878906 C 183.308594 158.878906 186.191406 157.339844 186.785156 157.0625 C 187.378906 156.785156 188.769531 155.675781 189.054688 155.675781 C 189.335938 155.675781 189.765625 155.25 190.527344 154.886719 C 191.292969 154.523438 191.609375 154.542969 192.769531 153.691406 C 193.925781 152.835938 194.886719 152.34375 195.207031 152.171875 C 195.527344 152.003906 195.652344 152.695312 195.402344 152.695312 C 195.152344 152.695312 195.101562 152.835938 194.40625 153.476562 C 193.714844 154.117188 193.660156 154.203125 193.089844 154.609375 C 192.519531 155.011719 191.417969 155.890625 191.417969 155.890625 C 191.417969 155.890625 194.886719 153.710938 195.191406 153.539062 C 195.492188 153.371094 196.078125 152.835938 196.453125 152.601562 C 196.828125 152.367188 197.09375 152.046875 197.929688 151.488281 C 198.765625 150.933594 198.855469 150.914062 199.742188 150.25 C 200.632812 149.589844 200.980469 149.011719 201.929688 148.382812 C 202.882812 147.753906 203.710938 146.941406 204.242188 146.492188 C 204.777344 146.042969 205.648438 145.273438 205.648438 145.273438 C 205.648438 145.273438 203.832031 146.515625 202.882812 147.175781 C 201.929688 147.835938 201.308594 147.75 200.527344 148.382812 C 199.742188 149.011719 199.636719 149.140625 198.855469 149.589844 C 198.070312 150.039062 197.75 150.230469 197.394531 150.402344 C 197.039062 150.570312 197.199219 150.28125 197.625 149.824219 C 198.054688 149.367188 198.265625 149.117188 198.90625 148.714844 C 199.546875 148.308594 199.386719 148.394531 200.257812 147.753906 C 201.128906 147.113281 201.113281 147.046875 201.914062 146.40625 C 202.714844 145.765625 203.460938 145.273438 203.460938 145.273438 C 203.460938 145.273438 202.625 145.511719 202.109375 145.917969 C 201.59375 146.320312 201.34375 146.558594 200.6875 146.875 C 200.027344 147.195312 199.796875 147.261719 199.316406 147.515625 C 198.835938 147.773438 198.550781 147.878906 198.550781 147.878906 C 198.550781 147.878906 199.21875 147.164062 199.449219 147.039062 C 199.679688 146.910156 200.152344 146.515625 200.152344 146.515625 " fill-opacity="1" fill-rule="evenodd"/><path fill="#fefefe" d="M 227.1875 154.660156 C 227.1875 154.660156 227.933594 152.609375 229.394531 152.609375 C 230.855469 152.609375 231.171875 151.101562 231.957031 151.101562 C 232.738281 151.101562 233.234375 150.882812 234.945312 149.898438 C 236.652344 148.914062 237.167969 148.476562 238.214844 147.140625 C 239.265625 145.804688 240.066406 145.804688 241.0625 145.804688 C 242.058594 145.804688 244.050781 144.109375 245.542969 142.699219 C 247.039062 141.289062 247.609375 140.019531 248.675781 140.019531 C 249.742188 140.019531 251.878906 138.855469 251.878906 138.855469 L 254.652344 137.148438 C 254.652344 137.148438 253.050781 138.8125 252.589844 139.152344 C 252.128906 139.496094 252.554688 139.28125 251.414062 140.050781 C 250.277344 140.820312 250.5625 140.90625 248.925781 141.972656 C 247.289062 143.042969 248.140625 142.144531 246.683594 143.554688 C 245.226562 144.964844 244.621094 145.902344 244.621094 145.902344 C 244.621094 145.902344 250.097656 142.101562 251.167969 141.289062 C 252.234375 140.476562 253.230469 140.007812 253.941406 139.453125 C 254.652344 138.898438 255.46875 138.515625 256.183594 137.832031 C 256.894531 137.148438 256.574219 137.703125 257.25 137.148438 C 257.925781 136.59375 258.671875 136.25 258.671875 136.25 C 258.671875 136.25 259.023438 136.511719 259.847656 136.683594 C 259.601562 137.75 259.339844 138.980469 259.074219 140.355469 C 258.820312 140.613281 258.609375 140.847656 257.925781 141.292969 C 256.609375 142.144531 256.679688 142.144531 255.96875 142.785156 C 255.257812 143.425781 253.15625 144.921875 253.15625 144.921875 C 253.15625 144.921875 256.859375 142.25 258.984375 140.8125 C 258.695312 142.363281 258.40625 144.085938 258.140625 145.964844 L 257.355469 146.5 C 255.363281 147.867188 255.859375 147.742188 254.402344 148.335938 L 257.675781 147.183594 C 257.675781 147.183594 257.816406 147.023438 258.019531 146.839844 C 257.96875 147.226562 257.921875 147.617188 257.871094 148.015625 C 257.796875 148.191406 257.621094 148.394531 256.5 148.914062 C 254.4375 149.875 254.757812 149.234375 252.980469 150.515625 C 251.199219 151.796875 250.417969 151.925781 249.03125 152.820312 C 247.644531 153.71875 247.109375 153.804688 246.21875 154.230469 C 245.332031 154.660156 244.261719 154.660156 244.261719 154.660156 C 244.261719 154.660156 247.179688 152.652344 247.890625 152.308594 C 248.601562 151.96875 250.0625 150.644531 250.808594 150.175781 C 251.554688 149.703125 252.871094 148.765625 253.582031 148.292969 C 254.296875 147.824219 254.296875 147.484375 255.253906 146.800781 C 256.214844 146.117188 257.246094 145.453125 257.246094 145.453125 C 257.246094 145.453125 255.71875 145.773438 254.011719 146.886719 C 252.304688 147.996094 253.085938 147.269531 251.128906 148.421875 C 249.171875 149.574219 250.273438 149.363281 247.679688 150.34375 C 245.082031 151.328125 244.261719 151.453125 242.34375 152.4375 C 240.421875 153.421875 239.351562 153.847656 238.394531 154.316406 C 237.433594 154.785156 236.507812 155.085938 236.257812 155.214844 C 236.007812 155.34375 237.933594 152.4375 239.265625 151.96875 C 240.597656 151.496094 241.238281 150.898438 242.234375 150.34375 C 243.230469 149.789062 246.503906 147.996094 247.640625 147.226562 C 248.78125 146.457031 248.53125 146.71875 250.097656 145.734375 C 251.660156 144.75 253.335938 143.082031 253.335938 143.082031 C 253.335938 143.082031 250.488281 144.964844 248.710938 145.734375 C 246.929688 146.5 247.960938 145.6875 244.046875 147.695312 C 240.136719 149.703125 240.277344 149.234375 239.03125 150.300781 C 237.789062 151.371094 238.355469 151.285156 236.117188 152.179688 C 233.875 153.078125 233.554688 152.863281 232.558594 153.546875 C 231.5625 154.230469 231.3125 154.402344 231.3125 154.402344 C 231.3125 154.402344 230.601562 155.21875 229.320312 155.21875 C 228.042969 155.21875 228.148438 155.085938 226.867188 156.027344 C 225.585938 156.964844 226.050781 156.878906 224.804688 157.390625 C 223.558594 157.90625 224.519531 157.222656 222.382812 158.074219 C 220.25 158.929688 221.425781 158.703125 219.574219 159.058594 C 217.722656 159.410156 218.472656 158.609375 217.261719 159.410156 C 216.050781 160.210938 215.019531 160.550781 215.019531 160.550781 C 215.019531 160.550781 217.082031 159.101562 217.652344 158.714844 C 218.222656 158.332031 219.292969 158.117188 220.285156 157.863281 C 221.277344 157.605469 222.457031 157.210938 223.59375 156.707031 C 224.734375 156.207031 226.546875 155.339844 226.546875 155.339844 Z M 227.1875 154.660156 " fill-opacity="1" fill-rule="evenodd"/><path fill="#fefefe" d="M 246.628906 139.046875 C 246.148438 139.410156 246.558594 139.132812 245.722656 139.667969 C 244.886719 140.199219 245.136719 139.964844 244.246094 140.4375 C 243.355469 140.90625 243.695312 140.695312 242.859375 141.289062 C 242.023438 141.886719 242.234375 141.632812 241.59375 142.101562 C 240.953125 142.570312 239.835938 143.382812 239.265625 143.683594 C 238.695312 143.980469 238.890625 143.746094 238.375 144.109375 C 237.859375 144.472656 237.734375 144.449219 237.09375 144.8125 C 236.453125 145.175781 235.957031 145.433594 235.957031 145.433594 C 235.957031 145.433594 237.769531 144.128906 238.128906 143.894531 C 238.484375 143.660156 238.90625 143.277344 239.085938 143.148438 C 239.265625 143.019531 239.460938 142.914062 239.871094 142.71875 C 240.277344 142.527344 240.632812 142.242188 240.632812 142.242188 C 240.632812 142.242188 239.890625 142.550781 239.265625 142.804688 C 238.644531 143.0625 238.980469 142.785156 238.214844 143.320312 C 237.453125 143.851562 237.71875 143.660156 236.988281 144.214844 C 236.261719 144.769531 235.886719 145.027344 235.636719 145.15625 C 235.386719 145.285156 234.074219 146.246094 233.699219 146.480469 C 233.324219 146.714844 233.574219 146.5 232.96875 146.929688 C 232.363281 147.355469 232.152344 147.460938 231.597656 147.824219 C 231.046875 148.1875 228.878906 149.617188 228.878906 149.617188 C 228.878906 149.617188 231.742188 147.976562 231.953125 147.933594 C 232.167969 147.890625 232.703125 147.613281 233.324219 147.292969 C 233.949219 146.972656 233.664062 146.886719 234.625 146.609375 C 235.582031 146.332031 236.457031 145.796875 236.988281 145.539062 C 237.523438 145.285156 237.378906 145.296875 238.324219 144.8125 C 238.324219 144.8125 237.042969 145.796875 236.542969 145.96875 C 236.046875 146.136719 235.707031 146.480469 235.175781 146.777344 C 234.640625 147.078125 234.855469 146.820312 234.335938 147.226562 C 233.820312 147.632812 232.347656 148.613281 232.347656 148.613281 C 232.347656 148.613281 234.214844 147.78125 234.730469 147.484375 C 235.246094 147.183594 235.832031 146.929688 236.3125 146.671875 C 236.792969 146.414062 236.542969 146.566406 237.753906 145.945312 C 238.964844 145.324219 240.28125 145.027344 241.277344 144.332031 C 242.273438 143.640625 242.34375 143.53125 243.375 142.957031 C 244.40625 142.378906 245.632812 141.289062 245.632812 141.289062 C 245.632812 141.289062 244.476562 141.996094 243.730469 142.378906 C 242.984375 142.761719 243.105469 142.527344 242.414062 142.914062 C 241.722656 143.296875 241.523438 143.167969 240.9375 143.53125 C 240.351562 143.894531 240.226562 143.882812 239.996094 144.109375 C 239.765625 144.332031 241.152344 143.296875 241.4375 143.019531 C 241.722656 142.742188 241.722656 142.699219 242.378906 142.421875 C 243.035156 142.144531 242.433594 142.464844 243.605469 141.824219 C 244.78125 141.183594 244.992188 141.035156 245.457031 140.714844 C 245.917969 140.394531 245.917969 140.285156 246.648438 139.792969 C 247.378906 139.304688 247.199219 139.730469 247.964844 139.046875 C 248.730469 138.363281 250.042969 137.316406 250.042969 137.316406 C 250.042969 137.316406 248.480469 138.191406 248 138.449219 C 247.519531 138.707031 247.570312 138.621094 247.199219 138.855469 C 246.824219 139.089844 246.628906 139.046875 246.628906 139.046875 " fill-opacity="1" fill-rule="evenodd"/><path fill="#d41a1a" d="M 187.511719 236.328125 C 187.511719 236.328125 189.675781 241.78125 190.898438 241.40625 C 192.121094 241.03125 193.625 240.183594 193.625 240.183594 C 193.625 240.183594 191.367188 248.390625 192.050781 248.859375 C 192.730469 249.328125 196.515625 244.746094 196.515625 244.746094 C 196.515625 244.746094 196.964844 247.1875 197.433594 247.09375 C 197.902344 247 202.109375 246.0625 202.109375 246.0625 C 202.109375 246.0625 200.207031 250.902344 200.652344 251.351562 C 201.101562 251.796875 202.652344 252.339844 202.652344 252.339844 C 202.652344 252.339844 194.824219 257.652344 195.082031 258.96875 C 195.339844 260.285156 195.742188 261.179688 195.742188 261.179688 C 195.742188 261.179688 189.511719 259.25 188.453125 259.625 C 187.394531 260.003906 188.40625 267.148438 188.40625 267.148438 L 186.617188 267.148438 C 186.617188 267.148438 187.628906 260.003906 186.570312 259.625 C 185.511719 259.25 179.28125 261.179688 179.28125 261.179688 C 179.28125 261.179688 179.683594 260.285156 179.941406 258.96875 C 180.199219 257.652344 172.371094 252.339844 172.371094 252.339844 C 172.371094 252.339844 173.921875 251.796875 174.367188 251.351562 C 174.816406 250.902344 172.910156 246.0625 172.910156 246.0625 C 172.910156 246.0625 177.117188 247 177.589844 247.09375 C 178.058594 247.1875 178.507812 244.746094 178.507812 244.746094 C 178.507812 244.746094 182.292969 249.328125 182.972656 248.859375 C 183.65625 248.390625 181.398438 240.183594 181.398438 240.183594 C 181.398438 240.183594 182.902344 241.03125 184.125 241.40625 C 185.347656 241.78125 187.511719 236.328125 187.511719 236.328125 " fill-opacity="1" fill-rule="evenodd"/><path fill="#1a1a1a" d="M 115.726562 170.773438 L 259.300781 170.773438 L 259.300781 175.851562 L 115.726562 175.851562 Z M 115.726562 170.773438 " fill-opacity="1" fill-rule="evenodd"/><path fill="#1a1a1a" d="M 119.6875 227.5 L 255.335938 227.5 L 255.335938 232.574219 L 119.6875 232.574219 Z M 119.6875 227.5 " fill-opacity="1" fill-rule="evenodd"/><path fill="#fefefe" d="M 205.261719 163.511719 L 257.378906 163.511719 L 257.378906 164.402344 L 205.261719 164.402344 L 205.261719 165.144531 L 257.378906 165.144531 L 257.378906 165.515625 L 205.261719 165.515625 L 205.261719 168.003906 L 257.378906 168.003906 L 257.378906 170.230469 L 205.261719 170.230469 L 205.261719 170.601562 L 257.378906 170.601562 L 257.378906 171.203125 L 205.261719 171.203125 L 205.261719 171.351562 C 205.261719 171.839844 204.859375 172.242188 204.371094 172.242188 L 203.480469 172.242188 L 203.480469 162.472656 L 204.371094 162.472656 C 204.859375 162.472656 205.261719 162.875 205.261719 163.363281 Z M 205.261719 163.511719 " fill-opacity="1" fill-rule="evenodd"/><path fill="#fefefe" d="M 201.269531 163.511719 L 156.710938 163.511719 L 156.710938 164.402344 L 201.269531 164.402344 L 201.269531 165.144531 L 156.710938 165.144531 L 156.710938 165.515625 L 201.269531 165.515625 L 201.269531 168.003906 L 156.710938 168.003906 L 156.710938 170.230469 L 201.269531 170.230469 L 201.269531 170.601562 L 156.710938 170.601562 L 156.710938 171.203125 L 201.269531 171.203125 L 201.269531 171.351562 C 201.269531 171.839844 201.671875 172.242188 202.160156 172.242188 L 203.050781 172.242188 L 203.050781 162.472656 L 202.160156 162.472656 C 201.667969 162.472656 201.269531 162.875 201.269531 163.363281 Z M 201.269531 163.511719 " fill-opacity="1" fill-rule="evenodd"/><path fill="#1a1a1a" d="M 240.125 108 C 226.308594 106.890625 212.640625 103.734375 199.828125 98.4375 C 195.949219 96.832031 191.582031 94.808594 187.511719 92.527344 C 183.441406 94.808594 179.074219 96.832031 175.195312 98.4375 C 162.382812 103.738281 148.714844 106.890625 134.898438 108 C 134.5 109.347656 134.039062 110.640625 133.53125 111.84375 C 130.566406 118.828125 125.734375 124.058594 119.6875 127.582031 C 124.539062 147.042969 121.25 171.839844 120.558594 190.042969 C 119.953125 206.042969 120.058594 226.074219 128.863281 240.09375 C 141.445312 260.125 169.347656 260.46875 187.511719 275.503906 C 205.675781 260.46875 233.578125 260.125 246.160156 240.09375 C 254.964844 226.074219 255.066406 206.042969 254.460938 190.039062 C 253.773438 171.839844 250.484375 147.042969 255.335938 127.582031 C 249.285156 124.058594 244.457031 118.824219 241.492188 111.839844 C 240.984375 110.636719 240.519531 109.34375 240.125 108 M 187.511719 293.835938 C 200.121094 270.359375 238.207031 275.085938 256.21875 246.410156 C 279.09375 209.996094 254.34375 148.878906 270.65625 120.621094 C 248.980469 116.761719 250.464844 96.570312 250.464844 96.570312 C 211.265625 96.269531 187.511719 78.453125 187.511719 78.453125 C 187.511719 78.453125 163.753906 96.269531 124.558594 96.566406 C 124.558594 96.566406 126.042969 116.761719 104.367188 120.621094 C 120.679688 148.878906 95.929688 209.996094 118.804688 246.410156 C 136.816406 275.085938 174.902344 270.359375 187.511719 293.835938 Z M 187.511719 293.835938 " fill-opacity="1" fill-rule="evenodd"/><path fill="#fefefe" d="M 151.855469 149.863281 C 152.082031 149.132812 152.410156 148.492188 152.824219 148.121094 C 152.691406 148.054688 152.558594 147.984375 152.425781 147.910156 C 152.417969 147.921875 152.414062 147.929688 152.40625 147.9375 C 152.035156 148.394531 151.527344 148.632812 150.941406 148.632812 C 150.792969 148.632812 150.640625 148.632812 150.488281 148.628906 C 150.867188 148.90625 151.136719 149.257812 151.441406 149.667969 C 151.453125 149.683594 151.464844 149.699219 151.476562 149.714844 C 151.601562 149.761719 151.730469 149.8125 151.855469 149.863281 M 157.410156 115.832031 C 159.359375 114.078125 161.914062 113.328125 164.515625 113.347656 C 166.648438 113.363281 169.117188 113.925781 170.929688 115.078125 C 172.699219 116.203125 174.285156 118.242188 174.828125 120.3125 C 175.453125 120.523438 176.074219 120.738281 176.691406 120.957031 C 177.386719 121.207031 177.851562 121.792969 177.933594 122.527344 C 178.175781 124.71875 178.316406 127.738281 177.910156 129.871094 C 177.695312 131 177.011719 132.433594 176.191406 133.832031 C 176.539062 134.230469 176.703125 134.753906 176.632812 135.3125 C 176.535156 136.050781 176.667969 136.792969 176.886719 137.5 C 177.101562 138.179688 177.523438 139.003906 177.523438 139.707031 C 177.523438 139.988281 177.46875 140.246094 177.371094 140.484375 C 178.292969 141.921875 178.53125 144.964844 178.628906 146.632812 C 178.644531 146.90625 178.699219 147.460938 178.8125 147.734375 C 178.953125 147.953125 179.042969 148.191406 179.082031 148.433594 C 180.039062 149.363281 180.710938 150.792969 181.027344 152.003906 C 181.054688 152.105469 181.070312 152.203125 181.082031 152.304688 C 182.828125 153.699219 182.199219 156.460938 182.199219 158.421875 C 182.199219 158.832031 182.222656 159.234375 182.28125 159.640625 C 182.375 160.320312 182.390625 160.953125 182.007812 161.480469 C 182.195312 162.105469 182.253906 162.808594 182.152344 163.585938 C 181.675781 167.359375 175.960938 166.757812 173.207031 166.757812 C 172.152344 166.757812 171.101562 166.757812 170.046875 166.757812 C 170.164062 167.167969 170.128906 167.609375 169.945312 168.027344 C 169.640625 168.707031 169.015625 169.125 168.324219 169.144531 C 168.261719 169.148438 168.117188 169.183594 168.074219 169.222656 C 168.058594 169.25 168.054688 169.3125 168.050781 169.339844 C 167.964844 170.113281 167.453125 170.71875 166.710938 170.941406 C 166.058594 171.132812 165.398438 170.976562 164.914062 170.539062 C 163.304688 171.542969 160.335938 172.625 159.191406 172.761719 C 157.941406 172.914062 156.769531 173.03125 155.503906 172.886719 C 153.515625 172.660156 151.699219 171.761719 150.964844 169.785156 C 150.925781 169.679688 150.894531 169.570312 150.875 169.460938 C 150.804688 169.421875 150.730469 169.382812 150.660156 169.335938 C 150.285156 169.105469 149.980469 168.792969 149.777344 168.417969 C 149.359375 168.246094 149.03125 167.941406 148.835938 167.554688 C 147.003906 167.390625 145.445312 166.582031 144.421875 164.976562 C 144.265625 164.726562 143.921875 164.390625 143.710938 164.175781 C 143.253906 163.707031 142.78125 163.25 142.3125 162.789062 C 141.683594 162.171875 141.039062 161.539062 140.46875 160.867188 C 140.28125 160.644531 140.097656 160.414062 139.9375 160.167969 C 137.761719 160.550781 135.15625 160.292969 133.871094 158.375 C 133.167969 157.328125 132.996094 156.148438 133.066406 154.914062 C 133.066406 154.898438 133.066406 154.878906 133.066406 154.859375 C 132.972656 154.875 132.875 154.882812 132.777344 154.886719 C 132.425781 154.890625 132.097656 154.808594 131.8125 154.644531 C 131.191406 154.777344 130.550781 154.589844 130.085938 154.113281 C 129.132812 153.136719 127.429688 152.308594 126.121094 152.042969 C 123.914062 151.59375 120.328125 150.648438 120.085938 147.902344 C 120.058594 147.578125 120.027344 147.292969 120.007812 147.027344 C 119.066406 146.550781 118.066406 145.835938 117.257812 145.191406 C 115.265625 143.605469 113.542969 141.664062 112.257812 139.464844 C 111.929688 138.910156 111.707031 138.308594 111.585938 137.675781 C 110.898438 133.96875 113.984375 130.296875 116.613281 128.082031 C 118.726562 126.304688 122.039062 124.230469 124.855469 124.03125 C 125.40625 123.992188 125.941406 124.007812 126.457031 124.074219 C 126.667969 123.3125 127.277344 122.765625 127.960938 122.316406 C 128.996094 121.640625 130.105469 121.816406 131.128906 122.328125 C 131.207031 122.023438 131.328125 121.730469 131.496094 121.453125 C 132.28125 120.148438 133.734375 119.660156 135.152344 119.410156 C 135.796875 119.292969 136.449219 119.347656 137.058594 119.585938 C 137.097656 119.535156 137.136719 119.484375 137.183594 119.4375 C 137.480469 119.113281 137.863281 118.890625 138.289062 118.773438 C 139.90625 118.332031 150.152344 118.882812 151.679688 119.53125 C 151.90625 119.625 152.121094 119.757812 152.308594 119.917969 C 152.558594 120.132812 152.753906 120.378906 152.894531 120.644531 L 153.914062 118.769531 C 154.363281 117.753906 155.246094 116.761719 156.144531 116.148438 C 156.53125 115.882812 156.960938 115.777344 157.410156 115.832031 Z M 157.410156 115.832031 " fill-opacity="1" fill-rule="evenodd"/><path fill="#d41a1a" d="M 162.007812 135.699219 L 158.867188 140.929688 L 167.097656 142.828125 L 170.488281 137.8125 Z M 161.632812 134.792969 L 171.773438 137.320312 L 167.449219 143.71875 L 157.628906 141.453125 Z M 171.6875 136.425781 L 171.511719 135.859375 L 172.125 134.71875 C 172.125 134.71875 169.363281 135.960938 166.46875 134.996094 C 163.578125 134.03125 161.109375 131.253906 161.109375 131.253906 L 156.214844 138.503906 C 156.214844 138.503906 156.097656 140.285156 155.773438 141.292969 C 155.773438 141.292969 155.585938 140.328125 155.351562 139.917969 C 155.117188 139.511719 154.914062 138.898438 155.351562 138.152344 C 155.789062 137.40625 159.632812 130.992188 159.632812 130.992188 C 159.632812 130.992188 160.273438 129.558594 161.738281 130.40625 C 163.199219 131.253906 164.847656 133.214844 168.75 133.550781 C 172.652344 133.886719 173.511719 133.503906 173.511719 133.503906 Z M 158.492188 117.402344 C 158.492188 117.402344 164.863281 118.804688 167.550781 119.417969 C 170.238281 120.035156 173.046875 120.96875 173.046875 120.96875 C 173.046875 120.96875 172.445312 118.28125 169.917969 116.671875 C 167.390625 115.066406 161.808594 114.203125 158.492188 117.402344 Z M 167.355469 137.472656 L 167.003906 142.203125 L 167.480469 141.496094 L 168.351562 137.722656 Z M 165.171875 136.929688 L 166.4375 142.234375 L 166.785156 142.316406 L 166.554688 137.273438 Z M 161.964844 136.609375 L 165.539062 142.027344 L 166.105469 142.160156 L 163.667969 136.554688 L 162.214844 136.191406 Z M 165.363281 141.988281 L 161.152344 137.953125 L 160.300781 139.371094 L 163.867188 141.644531 Z M 156.621094 119.082031 L 157.335938 118.234375 C 157.335938 118.234375 158.914062 120.339844 158.125 123.488281 C 157.335938 126.636719 155.085938 129.515625 155.085938 129.515625 L 154.585938 128.257812 C 154.585938 128.257812 158.34375 123.738281 156.621094 119.082031 Z M 156.136719 119.917969 L 153.246094 125.410156 L 154.003906 127.0625 C 154.003906 127.0625 155.964844 124.257812 156.136719 122.882812 C 156.3125 121.507812 156.136719 119.917969 156.136719 119.917969 Z M 140.464844 158.109375 C 140.464844 158.109375 136.695312 159.191406 135.4375 157.320312 C 134.183594 155.453125 135.847656 152.675781 134.621094 152.265625 C 133.394531 151.855469 132.75 152.996094 132.75 152.996094 C 132.75 152.996094 131.523438 150.949219 133.421875 149.78125 C 135.320312 148.613281 138.273438 145.605469 139.824219 146.742188 C 139.824219 146.742188 138.097656 144.671875 134.589844 146.742188 C 131.085938 148.816406 131.171875 150.277344 131.4375 152.792969 C 131.4375 152.792969 129.507812 150.804688 126.496094 150.191406 C 123.488281 149.578125 122.054688 148.730469 121.96875 147.738281 C 121.878906 146.746094 121.238281 144.988281 124.65625 141.308594 C 128.074219 137.625 130.164062 134.292969 131.164062 135.230469 C 132.167969 136.164062 134.855469 139.699219 137.222656 141.160156 C 139.589844 142.621094 139.824219 142.621094 140.144531 143.792969 C 140.464844 144.960938 140.699219 145.3125 141.898438 145.632812 C 143.09375 145.953125 143.242188 145.339844 143.796875 146.042969 C 144.351562 146.746094 144.90625 148.964844 144.90625 148.964844 C 144.90625 148.964844 145.347656 147.152344 145.578125 147.472656 C 145.8125 147.792969 145.125 149.402344 146.03125 150.921875 C 146.03125 150.921875 145.667969 148.582031 146.878906 148.46875 C 148.09375 148.351562 148.765625 150.03125 148.398438 152.003906 C 148.398438 152.003906 148.714844 149.855469 149.230469 150.074219 C 149.742188 150.292969 150.007812 151.183594 150.605469 151.402344 C 151.203125 151.625 152.34375 151.960938 152.359375 152.75 C 152.375 153.535156 151.292969 153.945312 150.417969 153.710938 C 149.539062 153.480469 148.867188 152.207031 147.140625 152.46875 C 145.417969 152.734375 144.835938 151.359375 144.335938 151.785156 C 144.015625 152.058594 142.527344 152.679688 142.078125 154.421875 C 141.136719 155.238281 140.617188 156.347656 140.464844 158.109375 Z M 153.757812 154.953125 C 153.757812 154.953125 157.632812 154.3125 160.820312 159.398438 L 159.636719 160.171875 C 159.636719 160.171875 158.058594 157.132812 155.121094 156.546875 L 153.886719 155.128906 Z M 159.820312 160.492188 L 161.089844 159.660156 L 161.789062 159.660156 L 168.21875 167.257812 C 168.21875 167.257812 166.378906 167.316406 166.175781 169.128906 L 159.699219 161.246094 Z M 145.886719 126 C 145.886719 126 147.113281 129.5 146.121094 132.285156 C 145.125 135.070312 144.191406 139.269531 144.746094 140.875 C 144.746094 140.875 143.402344 138.433594 144.21875 135.070312 C 145.039062 131.707031 146.507812 130.472656 145.886719 126 Z M 120.929688 145.375 C 120.929688 145.375 121.191406 143.007812 123.265625 141.050781 C 125.34375 139.09375 127.242188 134.390625 129.988281 134.273438 C 129.988281 134.273438 120.957031 132.167969 116.660156 134.769531 C 116.660156 134.769531 121.511719 131.078125 128.351562 133.074219 C 128.351562 133.074219 130.601562 133.773438 129.988281 132.898438 C 129.375 132.019531 124.902344 128.691406 121.863281 129.246094 C 121.863281 129.246094 129.316406 127.636719 131.828125 134.652344 C 131.828125 134.652344 136.210938 139.152344 139.367188 141.050781 C 142.523438 142.949219 140.683594 144.675781 144.308594 144.5 C 147.933594 144.324219 145.679688 146.742188 150.941406 146.742188 C 150.941406 146.742188 150.648438 145.289062 148.164062 144.121094 C 145.679688 142.949219 146.867188 139.445312 148.046875 136.171875 C 149.230469 132.898438 147.519531 128.75 149.230469 126.585938 C 150.941406 124.421875 151.90625 121.675781 150.941406 121.265625 C 149.976562 120.859375 140.070312 120.246094 138.785156 120.59375 C 137.5 120.945312 140.28125 124.695312 138.695312 129.15625 C 138.695312 129.15625 138.785156 120.683594 135.480469 121.265625 C 132.179688 121.851562 132.15625 123.34375 134.636719 128.132812 C 134.636719 128.132812 130.515625 122.902344 128.992188 123.898438 C 127.472656 124.890625 128.527344 124.976562 130.398438 126.554688 C 132.269531 128.132812 133.640625 133.628906 136.941406 134.710938 C 136.941406 134.710938 134.515625 134.359375 132.734375 132.195312 C 130.953125 130.035156 129.519531 125.59375 124.988281 125.914062 C 120.460938 126.234375 111.109375 133.773438 113.886719 138.507812 C 116.660156 143.242188 120.929688 145.375 120.929688 145.375 Z M 157.289062 155.429688 C 157.289062 155.429688 157.046875 153.339844 156.304688 152.40625 C 155.558594 151.46875 154.378906 149.320312 154.066406 149.542969 C 153.757812 149.761719 153.121094 152.128906 153.441406 152.976562 C 153.757812 153.820312 153.957031 154.128906 155.320312 154.554688 C 156.683594 154.976562 156.886719 155.109375 157.289062 155.429688 Z M 158.816406 165.191406 C 158.816406 165.191406 157.578125 168.199219 156.449219 168.171875 C 155.320312 168.140625 157.765625 166.386719 155.953125 167.117188 C 154.140625 167.847656 152.738281 168.40625 151.65625 167.734375 C 150.574219 167.058594 152.914062 165.453125 154.375 165.714844 C 154.375 165.714844 151.804688 165.191406 150.515625 166.679688 C 150.515625 166.679688 150.398438 165.746094 149.230469 165.6875 C 148.0625 165.628906 146.835938 165.246094 146.015625 163.960938 C 145.195312 162.675781 140.988281 159.292969 141.253906 158.421875 C 141.515625 157.550781 141.925781 155.429688 142.890625 155.429688 C 143.855469 155.429688 143.882812 152.828125 145.050781 153.207031 C 146.21875 153.585938 145.8125 154.816406 146.894531 155.429688 C 146.894531 155.429688 146.570312 154.65625 146.511719 154.128906 C 146.457031 153.601562 146.03125 152.882812 147.59375 153.171875 C 149.15625 153.457031 149.304688 154.363281 150.546875 154.523438 C 151.789062 154.683594 152.613281 154.015625 153.390625 155.285156 C 154.167969 156.554688 154.519531 157.183594 155.382812 157.695312 C 156.246094 158.203125 159.3125 159.871094 159.0625 161.742188 C 158.816406 163.613281 157.136719 164.589844 158.011719 164.394531 C 158.890625 164.195312 159.503906 162.121094 159.503906 162.121094 C 159.503906 162.121094 159.703125 163.421875 158.816406 165.191406 Z M 174.757812 135.070312 C 174.757812 135.070312 173.324219 136.316406 173.238281 137.28125 C 173.152344 138.246094 168.914062 144.265625 168.269531 145.054688 C 167.628906 145.84375 172.246094 144.292969 173.765625 142.542969 C 173.765625 142.542969 173.179688 143.789062 170.433594 145.265625 C 167.6875 146.742188 165.875 146.835938 164.734375 147.65625 C 163.59375 148.472656 159.457031 150.875 155.910156 149.527344 C 155.910156 149.527344 160.816406 152.628906 166.605469 151.277344 C 166.605469 151.277344 161.519531 153.09375 156.726562 151.308594 C 156.726562 151.308594 157.75 151.863281 157.925781 153.105469 C 158.101562 154.347656 158.160156 154.960938 160.820312 155.429688 C 163.476562 155.894531 163.769531 156.675781 165.332031 157.550781 C 166.894531 158.421875 165.875 155.929688 165.960938 155.429688 C 166.050781 154.929688 167.65625 157.367188 172.359375 157.550781 C 177.066406 157.734375 168.125 158.152344 167.160156 157.550781 C 166.195312 156.949219 166.339844 158.9375 166.339844 158.9375 C 166.339844 158.9375 167.628906 163.027344 167.363281 164.867188 C 167.363281 164.867188 170.34375 164.867188 173.207031 164.867188 C 176.074219 164.867188 180.046875 165.191406 180.28125 163.347656 C 180.515625 161.507812 179.402344 160.171875 176.976562 160.171875 C 176.976562 160.171875 179.226562 159.703125 180.019531 160.171875 C 180.804688 160.636719 180.3125 160.507812 180.3125 158.421875 C 180.3125 156.335938 180.75 154.363281 179.84375 153.734375 C 178.9375 153.105469 175.898438 152.652344 173.5 153.105469 C 173.5 153.105469 175.078125 152.476562 179.199219 152.476562 C 179.199219 152.476562 178.628906 150.3125 177.445312 149.527344 C 176.261719 148.738281 170.050781 149.527344 170.050781 149.527344 C 170.050781 149.527344 173.441406 148.621094 177.210938 148.738281 C 177.210938 148.738281 176.832031 148.230469 176.746094 146.746094 C 176.65625 145.257812 176.394531 142.335938 175.75 141.460938 C 175.109375 140.582031 173.472656 141.578125 173.472656 141.578125 C 173.472656 141.578125 175.636719 140.175781 175.636719 139.707031 C 175.636719 139.238281 174.464844 137.339844 174.757812 135.070312 Z M 160.101562 157.34375 C 160.101562 157.34375 160.933594 157.882812 161.371094 157.914062 C 161.8125 157.941406 161.652344 156.027344 162.367188 156.683594 C 163.082031 157.34375 164.457031 158.613281 165.027344 158.863281 C 165.597656 159.113281 165.976562 159.367188 166.078125 160.003906 C 166.179688 160.636719 167 163.070312 166.824219 164.890625 C 166.824219 164.890625 164.425781 162.027344 164.121094 161.332031 C 163.8125 160.636719 163.476562 158.730469 163.476562 158.730469 C 163.476562 158.730469 163.824219 161.15625 163.476562 160.9375 C 163.125 160.71875 161.871094 159.125 160.101562 157.34375 Z M 160.101562 163.054688 C 160.101562 163.054688 164.71875 168.148438 164.339844 168.636719 C 163.960938 169.128906 160.160156 170.742188 158.960938 170.886719 C 157.765625 171.035156 153.679688 171.667969 152.738281 169.128906 C 152.738281 169.128906 153.601562 168.375 155.191406 169.128906 C 156.785156 169.878906 158.144531 170.214844 158.203125 169.851562 C 158.261719 169.484375 156.390625 169.046875 156.710938 168.855469 C 157.03125 168.667969 158.917969 168.171875 160.101562 163.054688 Z M 157.207031 117.710938 C 157.207031 117.710938 162.671875 118.9375 166.558594 119.84375 C 170.445312 120.75 176.058594 122.734375 176.058594 122.734375 C 176.058594 122.734375 176.523438 127.0625 176.058594 129.515625 C 175.589844 131.96875 171.996094 136.675781 171.996094 136.675781 L 172.140625 137.4375 L 167.507812 144.027344 L 164.90625 143.46875 L 166.664062 144.226562 C 166.664062 144.226562 164.804688 147.226562 162.703125 147.925781 C 160.597656 148.628906 155.074219 147.898438 151.625 145.121094 C 148.175781 142.34375 149.113281 137.757812 150.367188 133.664062 L 150.777344 128.492188 L 155.613281 119.59375 C 155.613281 119.59375 156.066406 118.484375 157.207031 117.710938 Z M 157.207031 117.710938 " fill-opacity="1" fill-rule="evenodd"/><path fill="#d41a1a" d="M 226 127.386719 L 176.359375 163.742188 L 213.1875 132.324219 L 174.167969 164.34375 L 204.089844 131.753906 L 172.472656 164.722656 L 184.421875 141.199219 L 170.304688 165.542969 L 167.78125 143.664062 L 168.035156 166.375 L 157.136719 152.378906 L 167.753906 170.277344 L 219.660156 158.980469 L 178.113281 166.722656 L 214.300781 155.617188 L 179.171875 165.554688 L 227.847656 147.121094 L 180.074219 164.480469 L 218.453125 147.121094 L 179.5625 164.042969 L 225.855469 138.800781 L 178.714844 163.851562 L 227.082031 131.878906 L 177.667969 163.6875 Z M 226 127.386719 " fill-opacity="1" fill-rule="evenodd"/><path fill="#fefefe" d="M 225.375 126.960938 L 175.730469 163.3125 L 212.558594 131.898438 L 173.539062 163.917969 L 203.460938 131.328125 L 171.84375 164.296875 L 183.792969 140.769531 L 169.675781 165.117188 L 167.152344 143.234375 L 167.40625 165.945312 L 156.511719 151.953125 L 167.71875 170.527344 L 219.03125 158.554688 L 177.484375 166.296875 L 213.675781 155.191406 L 178.546875 165.125 L 227.21875 146.691406 L 179.445312 164.054688 L 217.828125 146.691406 L 178.933594 163.617188 L 225.226562 138.371094 L 178.089844 163.421875 L 226.453125 131.453125 L 177.039062 163.261719 Z M 225.375 126.960938 " fill-opacity="1" fill-rule="evenodd"/><path fill="#1a1a1a" d="M 178.925781 113.347656 C 178.925781 113.347656 183.894531 110.078125 184.5625 110.355469 C 185.230469 110.632812 187.957031 111.734375 187.957031 111.734375 C 187.957031 111.734375 192.15625 107.703125 192.890625 107.96875 C 193.625 108.234375 197.824219 110.265625 197.824219 110.265625 C 197.824219 110.265625 193.007812 109.519531 192.496094 109.609375 C 191.984375 109.703125 188.121094 112.65625 188.121094 112.65625 C 188.121094 112.65625 185.003906 111.550781 184.21875 111.691406 C 183.433594 111.832031 178.925781 113.347656 178.925781 113.347656 " fill-opacity="1" fill-rule="evenodd"/><path fill="#1a1a1a" d="M 197.289062 112.90625 C 197.289062 112.90625 200.609375 110.722656 201.058594 110.910156 C 201.5 111.09375 203.324219 111.832031 203.324219 111.832031 C 203.324219 111.832031 206.128906 109.136719 206.621094 109.316406 C 207.113281 109.492188 209.917969 110.847656 209.917969 110.847656 C 209.917969 110.847656 206.699219 110.351562 206.355469 110.414062 C 206.015625 110.472656 203.433594 112.449219 203.433594 112.449219 C 203.433594 112.449219 201.351562 111.710938 200.828125 111.800781 C 200.300781 111.894531 197.289062 112.90625 197.289062 112.90625 " fill-opacity="1" fill-rule="evenodd"/><path fill="#1a1a1a" d="M 198.863281 109.109375 C 198.863281 109.109375 200.410156 108.09375 200.617188 108.179688 C 200.824219 108.265625 201.671875 108.609375 201.671875 108.609375 C 201.671875 108.609375 202.976562 107.355469 203.207031 107.4375 C 203.433594 107.519531 204.742188 108.152344 204.742188 108.152344 C 204.742188 108.152344 203.246094 107.921875 203.085938 107.949219 C 202.925781 107.976562 201.722656 108.894531 201.722656 108.894531 C 201.722656 108.894531 200.753906 108.550781 200.511719 108.597656 C 200.265625 108.640625 198.863281 109.109375 198.863281 109.109375 " fill-opacity="1" fill-rule="evenodd"/><path fill="#fefefe" d="M 187.511719 289.152344 C 211.359375 255.9375 264.660156 281.230469 264.0625 198.453125 C 262.074219 280.558594 210.757812 254.429688 187.511719 286.804688 C 164.265625 254.429688 112.949219 280.558594 110.960938 198.453125 C 110.363281 281.230469 163.664062 255.9375 187.511719 289.152344 " fill-opacity="1" fill-rule="evenodd"/><path fill="#fefefe" d="M 187.511719 82.328125 C 204.332031 93.859375 228.785156 97.902344 248.667969 98.320312 C 233.292969 97.996094 217.914062 94.984375 203.691406 89.101562 C 199.347656 87.308594 195.070312 85.230469 191.019531 82.839844 C 189.863281 82.15625 188.652344 81.421875 187.511719 80.640625 C 186.371094 81.421875 185.160156 82.15625 184 82.839844 C 179.953125 85.230469 175.675781 87.308594 171.332031 89.101562 C 157.109375 94.984375 141.730469 97.996094 126.355469 98.320312 C 146.238281 97.902344 170.691406 93.859375 187.511719 82.328125 " fill-opacity="1" fill-rule="evenodd"/><g clip-path="url(#d970611e57)"><path fill="#fefefe" d="M 95.886719 175.910156 L 279.113281 175.910156 L 279.113281 227.679688 L 95.886719 227.679688 Z M 95.886719 175.910156 " fill-opacity="1" fill-rule="nonzero"/></g><g fill="#130c0e" fill-opacity="1"><g transform="translate(95.57805, 219.860597)"><g><path d="M 9.359375 0 L 5.328125 0 L 0.574219 -35.28125 L 5.375 -35.28125 L 7.441406 -16.945312 L 7.535156 -15.792969 L 7.921875 -15.792969 L 8.0625 -16.945312 L 10.273438 -35.28125 L 14.015625 -35.28125 L 16.222656 -16.945312 L 16.367188 -15.792969 L 16.753906 -15.792969 L 16.847656 -16.945312 L 18.910156 -35.28125 L 23.710938 -35.28125 L 18.960938 0 L 14.929688 0 L 12.527344 -16.703125 L 12.238281 -18.769531 L 12.046875 -18.769531 L 11.761719 -16.703125 Z M 9.359375 0 "/></g></g></g><g fill="#130c0e" fill-opacity="1"><g transform="translate(119.866005, 219.860597)"><g><path d="M 1.921875 -35.28125 L 13.777344 -35.28125 L 13.777344 -29.953125 L 7.105469 -29.953125 L 7.105469 -20.6875 L 11.902344 -20.6875 L 11.902344 -15.023438 L 7.105469 -15.023438 L 7.105469 -5.328125 L 13.777344 -5.328125 L 13.777344 0 L 1.921875 0 Z M 1.921875 -35.28125 "/></g></g></g><g fill="#130c0e" fill-opacity="1"><g transform="translate(134.601977, 219.860597)"><g><path d="M 1.921875 -35.28125 L 7.105469 -35.28125 L 7.105469 -4.800781 L 13.96875 -4.800781 L 13.96875 0 L 1.921875 0 Z M 1.921875 -35.28125 "/></g></g></g><g fill="#130c0e" fill-opacity="1"><g transform="translate(148.761957, 219.860597)"><g><path d="M 1.921875 0 L 1.921875 -35.28125 L 6 -35.28125 C 10.800781 -35.28125 13.390625 -34.320312 14.785156 -31.632812 C 16.128906 -28.945312 16.320312 -24.527344 16.320312 -17.617188 C 16.320312 -10.703125 16.128906 -6.335938 14.785156 -3.648438 C 13.390625 -0.960938 10.800781 0 6 0 Z M 7.105469 -5.183594 C 8.878906 -5.183594 9.886719 -5.375 10.414062 -7.105469 C 10.65625 -7.921875 10.847656 -9.167969 10.894531 -10.847656 C 10.945312 -12.527344 10.945312 -14.785156 10.945312 -17.664062 C 10.945312 -20.542969 10.945312 -22.800781 10.894531 -24.480469 C 10.847656 -26.113281 10.65625 -27.359375 10.414062 -28.222656 C 9.886719 -29.902344 8.878906 -30.097656 7.105469 -30.097656 Z M 7.105469 -5.183594 "/></g></g></g><g fill="#130c0e" fill-opacity="1"><g transform="translate(166.61792, 219.860597)"><g><path d="M 1.921875 -35.28125 L 7.105469 -35.28125 L 7.105469 0 L 1.921875 0 Z M 1.921875 -35.28125 "/></g></g></g><g fill="#130c0e" fill-opacity="1"><g transform="translate(175.641906, 219.860597)"><g><path d="M 7.390625 -18.382812 L 6.960938 -20.015625 L 6.671875 -20.015625 L 6.671875 0 L 1.921875 0 L 1.921875 -35.28125 L 6.527344 -35.28125 L 11.566406 -16.894531 L 12 -15.265625 L 12.289062 -15.265625 L 12.289062 -35.28125 L 17.039062 -35.28125 L 17.039062 0 L 12.433594 0 Z M 7.390625 -18.382812 "/></g></g></g><g fill="#130c0e" fill-opacity="1"><g transform="translate(194.60187, 219.860597)"><g><path d="M 10.222656 -22.609375 L 10.222656 -28.03125 C 10.222656 -28.992188 10.03125 -29.664062 9.550781 -30.238281 C 9.3125 -30.480469 8.929688 -30.625 8.496094 -30.625 C 7.585938 -30.625 7.152344 -29.953125 6.960938 -29.328125 C 6.816406 -28.945312 6.769531 -28.511719 6.769531 -28.03125 L 6.769531 -6.816406 C 6.769531 -5.808594 7.007812 -5.136719 7.488281 -4.609375 C 7.726562 -4.367188 8.0625 -4.222656 8.496094 -4.222656 C 9.40625 -4.222656 9.839844 -4.800781 10.03125 -5.519531 C 10.175781 -5.855469 10.222656 -6.289062 10.222656 -6.816406 L 10.222656 -13.199219 L 8.160156 -13.199219 L 8.160156 -17.566406 L 15.40625 -17.566406 L 15.40625 0 L 12.335938 0 L 11.710938 -1.679688 C 10.753906 -0.480469 9.359375 0.382812 7.679688 0.382812 C 6 0.382812 4.847656 -0.046875 3.984375 -0.816406 C 3.121094 -1.535156 2.542969 -2.449219 2.160156 -3.40625 C 1.726562 -4.511719 1.535156 -5.808594 1.585938 -7.246094 L 1.585938 -28.03125 C 1.632812 -29.425781 1.921875 -30.71875 2.449219 -31.824219 C 2.878906 -32.785156 3.503906 -33.742188 4.464844 -34.464844 C 5.425781 -35.183594 6.769531 -35.664062 8.496094 -35.664062 C 10.222656 -35.664062 11.519531 -35.183594 12.480469 -34.464844 C 13.441406 -33.742188 14.113281 -32.785156 14.542969 -31.824219 C 15.070312 -30.71875 15.359375 -29.425781 15.40625 -28.03125 L 15.40625 -22.609375 Z M 10.222656 -22.609375 "/></g></g></g><g fill="#130c0e" fill-opacity="1"><g transform="translate(211.881841, 219.860597)"><g/></g></g><g fill="#130c0e" fill-opacity="1"><g transform="translate(219.273831, 219.860597)"><g><path d="M 10.511719 0 L 7.199219 -22.175781 L 7.007812 -23.664062 L 6.71875 -23.664062 L 6.71875 0 L 1.921875 0 L 1.921875 -35.28125 L 8.257812 -35.28125 L 11.328125 -19.152344 L 11.566406 -17.28125 L 11.664062 -17.28125 L 11.902344 -19.152344 L 14.976562 -35.28125 L 21.3125 -35.28125 L 21.3125 0 L 16.511719 0 L 16.511719 -23.664062 L 16.222656 -23.664062 L 16.03125 -22.175781 L 12.71875 0 Z M 10.511719 0 "/></g></g></g><g fill="#130c0e" fill-opacity="1"><g transform="translate(242.505794, 219.860597)"><g><path d="M 0.480469 0 L 5.808594 -35.28125 L 12.144531 -35.28125 L 17.472656 0 L 12.433594 0 L 11.472656 -7.199219 L 6.480469 -7.199219 L 5.519531 0 Z M 9.265625 -23.808594 L 9.121094 -24.71875 L 8.832031 -24.71875 L 8.6875 -23.808594 L 7.199219 -12.671875 L 10.753906 -12.671875 Z M 9.265625 -23.808594 "/></g></g></g><g fill="#130c0e" fill-opacity="1"><g transform="translate(260.457762, 219.860597)"><g><path d="M 7.390625 -18.382812 L 6.960938 -20.015625 L 6.671875 -20.015625 L 6.671875 0 L 1.921875 0 L 1.921875 -35.28125 L 6.527344 -35.28125 L 11.566406 -16.894531 L 12 -15.265625 L 12.289062 -15.265625 L 12.289062 -35.28125 L 17.039062 -35.28125 L 17.039062 0 L 12.433594 0 Z M 7.390625 -18.382812 "/></g></g></g><g fill="#000000" fill-opacity="1"><g transform="translate(151.105133, 247.722778)"><g><path d="M 0.371094 -3.898438 L 0.371094 0 L 2.546875 0 L 2.546875 -0.324219 L 0.730469 -0.324219 L 0.730469 -1.828125 L 2.296875 -1.828125 L 2.296875 -2.148438 L 0.730469 -2.148438 L 0.730469 -3.574219 L 2.546875 -3.574219 L 2.546875 -3.898438 Z M 0.371094 -3.898438 "/></g></g></g><g fill="#000000" fill-opacity="1"><g transform="translate(155.100131, 247.722778)"><g><path d="M 1.441406 -1.851562 C 2.121094 -1.753906 2.40625 -1.523438 2.40625 -1.066406 L 2.40625 -1.019531 C 2.40625 -0.546875 2.050781 -0.269531 1.519531 -0.269531 L 1.484375 -0.269531 C 0.960938 -0.269531 0.589844 -0.585938 0.589844 -1.269531 L 0.230469 -1.269531 L 0.230469 -1.21875 C 0.230469 -0.414062 0.675781 0.0546875 1.5 0.0546875 C 2.28125 0.0546875 2.773438 -0.355469 2.773438 -1.046875 L 2.773438 -1.09375 C 2.773438 -1.695312 2.425781 -2.039062 1.574219 -2.15625 C 0.859375 -2.253906 0.644531 -2.5 0.644531 -2.914062 L 0.644531 -2.953125 C 0.644531 -3.375 1.003906 -3.628906 1.480469 -3.628906 L 1.515625 -3.628906 C 2.109375 -3.628906 2.371094 -3.320312 2.371094 -2.578125 L 2.730469 -2.578125 L 2.730469 -2.699219 C 2.730469 -3.503906 2.371094 -3.953125 1.5 -3.953125 C 0.761719 -3.953125 0.273438 -3.558594 0.273438 -2.910156 L 0.273438 -2.859375 C 0.273438 -2.34375 0.589844 -1.964844 1.441406 -1.851562 Z M 1.441406 -1.851562 "/></g></g></g><g fill="#000000" fill-opacity="1"><g transform="translate(159.355131, 247.722778)"><g><path d="M 1.464844 -3.574219 L 2.460938 -3.574219 L 2.460938 -3.898438 L 0.113281 -3.898438 L 0.113281 -3.574219 L 1.105469 -3.574219 L 1.105469 0 L 1.464844 0 Z M 1.464844 -3.574219 "/></g></g></g><g fill="#000000" fill-opacity="1"><g transform="translate(163.180128, 247.722778)"><g><path d="M 2.910156 -1.851562 L 2.910156 -2.050781 C 2.910156 -3.398438 2.351562 -3.898438 1.398438 -3.898438 L 0.371094 -3.898438 L 0.371094 0 L 1.398438 0 C 2.351562 0 2.910156 -0.5 2.910156 -1.851562 Z M 0.730469 -0.324219 L 0.730469 -3.574219 L 1.371094 -3.574219 C 2.121094 -3.574219 2.539062 -3.160156 2.539062 -2.050781 L 2.539062 -1.851562 C 2.539062 -0.738281 2.121094 -0.324219 1.371094 -0.324219 Z M 0.730469 -0.324219 "/></g></g></g><g fill="#000000" fill-opacity="1"><g transform="translate(208.30698, 247.722778)"><g><path d="M 1.199219 -0.324219 L 0.824219 -0.320312 L 2.265625 -1.851562 C 2.613281 -2.21875 2.71875 -2.453125 2.71875 -2.855469 L 2.71875 -2.914062 C 2.71875 -3.53125 2.289062 -3.953125 1.5 -3.953125 C 0.65625 -3.953125 0.28125 -3.503906 0.28125 -2.71875 L 0.28125 -2.601562 L 0.636719 -2.601562 C 0.636719 -3.335938 0.921875 -3.636719 1.484375 -3.636719 L 1.515625 -3.636719 C 2.019531 -3.636719 2.363281 -3.339844 2.363281 -2.859375 L 2.363281 -2.808594 C 2.363281 -2.523438 2.265625 -2.324219 1.964844 -2.015625 L 0.28125 -0.226562 L 0.28125 0 L 2.71875 0 L 2.71875 -0.324219 Z M 1.199219 -0.324219 "/></g></g></g><g fill="#000000" fill-opacity="1"><g transform="translate(212.556983, 247.722778)"><g><path d="M 0.308594 -2.78125 L 0.308594 -1.121094 C 0.308594 -0.445312 0.648438 0.0546875 1.5 0.0546875 C 2.351562 0.0546875 2.691406 -0.445312 2.691406 -1.121094 L 2.691406 -2.78125 C 2.691406 -3.453125 2.351562 -3.953125 1.5 -3.953125 C 0.648438 -3.953125 0.308594 -3.453125 0.308594 -2.78125 Z M 2.335938 -2.738281 L 2.335938 -1.160156 C 2.335938 -0.621094 2.125 -0.265625 1.515625 -0.265625 L 1.484375 -0.265625 C 0.875 -0.265625 0.664062 -0.621094 0.664062 -1.160156 L 0.664062 -2.738281 C 0.664062 -3.28125 0.875 -3.636719 1.484375 -3.636719 L 1.515625 -3.636719 C 2.125 -3.636719 2.335938 -3.28125 2.335938 -2.738281 Z M 2.335938 -2.738281 "/></g></g></g><g fill="#000000" fill-opacity="1"><g transform="translate(216.806986, 247.722778)"><g><path d="M 1.199219 -0.324219 L 0.824219 -0.320312 L 2.265625 -1.851562 C 2.613281 -2.21875 2.71875 -2.453125 2.71875 -2.855469 L 2.71875 -2.914062 C 2.71875 -3.53125 2.289062 -3.953125 1.5 -3.953125 C 0.65625 -3.953125 0.28125 -3.503906 0.28125 -2.71875 L 0.28125 -2.601562 L 0.636719 -2.601562 C 0.636719 -3.335938 0.921875 -3.636719 1.484375 -3.636719 L 1.515625 -3.636719 C 2.019531 -3.636719 2.363281 -3.339844 2.363281 -2.859375 L 2.363281 -2.808594 C 2.363281 -2.523438 2.265625 -2.324219 1.964844 -2.015625 L 0.28125 -0.226562 L 0.28125 0 L 2.71875 0 L 2.71875 -0.324219 Z M 1.199219 -0.324219 "/></g></g></g><g fill="#000000" fill-opacity="1"><g transform="translate(221.056989, 247.722778)"><g><path d="M 1.199219 -0.324219 L 0.824219 -0.320312 L 2.265625 -1.851562 C 2.613281 -2.21875 2.71875 -2.453125 2.71875 -2.855469 L 2.71875 -2.914062 C 2.71875 -3.53125 2.289062 -3.953125 1.5 -3.953125 C 0.65625 -3.953125 0.28125 -3.503906 0.28125 -2.71875 L 0.28125 -2.601562 L 0.636719 -2.601562 C 0.636719 -3.335938 0.921875 -3.636719 1.484375 -3.636719 L 1.515625 -3.636719 C 2.019531 -3.636719 2.363281 -3.339844 2.363281 -2.859375 L 2.363281 -2.808594 C 2.363281 -2.523438 2.265625 -2.324219 1.964844 -2.015625 L 0.28125 -0.226562 L 0.28125 0 L 2.71875 0 L 2.71875 -0.324219 Z M 1.199219 -0.324219 "/></g></g></g></svg>